Comme-Semi-Bold.ufo
<glyph name="exclam" format="1">
  <advance width="741"/>
  <unicode hex="0021"/>
  <outline>
    <contour>
      <point x="318" y="451" type="line"/>
      <point x="418" y="451" type="line"/>
      <point x="477" y="1326" type="line"/>
      <point x="477" y="1518" type="line"/>
      <point x="252" y="1518" type="line"/>
      <point x="252" y="1326" type="line"/>
    </contour>
    <contour>
      <point x="364" y="-10" type="curve" smooth="yes"/>
      <point x="450" y="-10"/>
      <point x="504" y="59"/>
      <point x="504" y="136" type="curve" smooth="yes"/>
      <point x="504" y="212"/>
      <point x="450" y="279"/>
      <point x="364" y="279" type="curve" smooth="yes"/>
      <point x="277" y="279"/>
      <point x="221" y="212"/>
      <point x="221" y="136" type="curve" smooth="yes"/>
      <point x="221" y="60"/>
      <point x="277" y="-10"/>
    </contour>
  </outline>
</glyph>
<glyph name="quotedbl" format="1">
  <advance width="789"/>
  <unicode hex="0022"/>
  <outline>
    <contour>
      <point x="177" y="951" type="line"/>
      <point x="301" y="951" type="line"/>
      <point x="345" y="1544" type="line"/>
      <point x="97" y="1544" type="line"/>
    </contour>
    <contour>
      <point x="529" y="951" type="line"/>
      <point x="655" y="951" type="line"/>
      <point x="698" y="1544" type="line"/>
      <point x="450" y="1544" type="line"/>
    </contour>
  </outline>
</glyph>
<glyph name="ampersand" format="1">
  <advance width="1420"/>
  <unicode hex="0026"/>
  <outline>
    <contour>
      <point x="1194" y="-30" type="line"/>
      <point x="1337" y="97" type="line"/>
      <point x="1151" y="293" type="line"/>
      <point x="1248" y="417"/>
      <point x="1320" y="560"/>
      <point x="1382" y="672" type="curve"/>
      <point x="1236" y="772" type="line"/>
      <point x="1164" y="635"/>
      <point x="1096" y="519"/>
      <point x="1026" y="427" type="curve"/>
      <point x="668" y="802" type="line"/>
      <point x="836" y="892"/>
      <point x="1001" y="1022"/>
      <point x="1001" y="1200" type="curve" smooth="yes"/>
      <point x="1001" y="1416"/>
      <point x="817" y="1512"/>
      <point x="626" y="1512" type="curve" smooth="yes"/>
      <point x="417" y="1512"/>
      <point x="232" y="1392"/>
      <point x="232" y="1172" type="curve" smooth="yes"/>
      <point x="232" y="1042"/>
      <point x="317" y="917"/>
      <point x="401" y="831" type="curve"/>
      <point x="249" y="741"/>
      <point x="94" y="629"/>
      <point x="94" y="428" type="curve" smooth="yes"/>
      <point x="94" y="138"/>
      <point x="321" y="-18"/>
      <point x="583" y="-18" type="curve" smooth="yes"/>
      <point x="766" y="-18"/>
      <point x="907" y="52"/>
      <point x="1020" y="153" type="curve"/>
    </contour>
    <contour>
      <point x="596" y="161" type="curve" smooth="yes"/>
      <point x="426" y="161"/>
      <point x="315" y="251"/>
      <point x="315" y="417" type="curve" smooth="yes"/>
      <point x="315" y="552"/>
      <point x="402" y="628"/>
      <point x="511" y="693" type="curve"/>
      <point x="896" y="287" type="line"/>
      <point x="801" y="198"/>
      <point x="706" y="161"/>
    </contour>
    <contour>
      <point x="570" y="921" type="curve"/>
      <point x="474" y="1033"/>
      <point x="446" y="1099"/>
      <point x="446" y="1191" type="curve" smooth="yes"/>
      <point x="446" y="1288"/>
      <point x="524" y="1347"/>
      <point x="624" y="1347" type="curve" smooth="yes"/>
      <point x="728" y="1347"/>
      <point x="792" y="1299"/>
      <point x="792" y="1195" type="curve" smooth="yes"/>
      <point x="792" y="1079"/>
      <point x="681" y="979"/>
    </contour>
  </outline>
</glyph>
<glyph name="asterisk" format="1">
  <advance width="999"/>
  <unicode hex="002A"/>
  <outline>
    <contour>
      <point x="327" y="530" type="line"/>
      <point x="500" y="865" type="line"/>
      <point x="682" y="529" type="line"/>
      <point x="712" y="548"/>
      <point x="834" y="619"/>
      <point x="865" y="638" type="curve"/>
      <point x="817" y="700"/>
      <point x="666" y="901"/>
      <point x="626" y="954" type="curve"/>
      <point x="973" y="1033" type="line"/>
      <point x="914" y="1240" type="line"/>
      <point x="574" y="1096" type="line"/>
      <point x="608" y="1493" type="line"/>
      <point x="396" y="1493" type="line"/>
      <point x="430" y="1096" type="line"/>
      <point x="93" y="1240" type="line"/>
      <point x="34" y="1033" type="line"/>
      <point x="377" y="954" type="line"/>
      <point x="140" y="638" type="line"/>
    </contour>
  </outline>
</glyph>
<glyph name="two" format="1">
  <advance width="1322"/>
  <unicode hex="0032"/>
  <outline>
    <contour>
      <point x="209" y="0" type="line"/>
      <point x="1111" y="0" type="line"/>
      <point x="1121" y="203" type="line"/>
      <point x="489" y="203" type="line"/>
      <point x="865" y="561" type="line" smooth="yes"/>
      <point x="1064" y="749"/>
      <point x="1135" y="868"/>
      <point x="1135" y="1035" type="curve" smooth="yes"/>
      <point x="1135" y="1285"/>
      <point x="965" y="1476"/>
      <point x="636" y="1476" type="curve" smooth="yes"/>
      <point x="421" y="1476"/>
      <point x="242" y="1371"/>
      <point x="136" y="1247" type="curve"/>
      <point x="266" y="1104" type="line"/>
      <point x="289" y="1104" type="line"/>
      <point x="370" y="1200"/>
      <point x="505" y="1263"/>
      <point x="633" y="1263" type="curve" smooth="yes"/>
      <point x="765" y="1263"/>
      <point x="873" y="1185"/>
      <point x="873" y="1036" type="curve" smooth="yes"/>
      <point x="873" y="916"/>
      <point x="822" y="846"/>
      <point x="707" y="734" type="curve" smooth="yes"/>
      <point x="166" y="201" type="line"/>
    </contour>
  </outline>
</glyph>
<glyph name="six" format="1">
  <advance width="1322"/>
  <unicode hex="0036"/>
  <outline>
    <contour>
      <point x="669" y="-20" type="curve" smooth="yes"/>
      <point x="991" y="-20"/>
      <point x="1188" y="178"/>
      <point x="1188" y="447" type="curve" smooth="yes"/>
      <point x="1188" y="742"/>
      <point x="979" y="895"/>
      <point x="761" y="895" type="curve" smooth="yes"/>
      <point x="669" y="895"/>
      <point x="596" y="861"/>
      <point x="542" y="822" type="curve"/>
      <point x="697" y="1022"/>
      <point x="847" y="1227"/>
      <point x="999" y="1429" type="curve"/>
      <point x="999" y="1456" type="line"/>
      <point x="697" y="1456" type="line"/>
      <point x="331" y="940" type="line" smooth="yes"/>
      <point x="219" y="783"/>
      <point x="149" y="653"/>
      <point x="149" y="459" type="curve" smooth="yes"/>
      <point x="149" y="192"/>
      <point x="339" y="-20"/>
    </contour>
    <contour>
      <point x="668" y="178" type="curve" smooth="yes"/>
      <point x="513" y="178"/>
      <point x="424" y="296"/>
      <point x="424" y="450" type="curve" smooth="yes"/>
      <point x="424" y="641"/>
      <point x="551" y="726"/>
      <point x="671" y="726" type="curve" smooth="yes"/>
      <point x="823" y="726"/>
      <point x="912" y="614"/>
      <point x="912" y="452" type="curve" smooth="yes"/>
      <point x="912" y="298"/>
      <point x="823" y="178"/>
    </contour>
  </outline>
</glyph>
<glyph name="eight" format="1">
  <advance width="1322"/>
  <unicode hex="0038"/>
  <outline>
    <contour>
      <point x="663" y="-20" type="curve" smooth="yes"/>
      <point x="971" y="-20"/>
      <point x="1177" y="119"/>
      <point x="1177" y="379" type="curve" smooth="yes"/>
      <point x="1177" y="572"/>
      <point x="1077" y="715"/>
      <point x="915" y="773" type="curve"/>
      <point x="1058" y="828"/>
      <point x="1149" y="936"/>
      <point x="1149" y="1113" type="curve" smooth="yes"/>
      <point x="1149" y="1349"/>
      <point x="944" y="1476"/>
      <point x="662" y="1476" type="curve" smooth="yes"/>
      <point x="381" y="1476"/>
      <point x="172" y="1349"/>
      <point x="172" y="1113" type="curve" smooth="yes"/>
      <point x="172" y="933"/>
      <point x="272" y="821"/>
      <point x="416" y="772" type="curve"/>
      <point x="247" y="712"/>
      <point x="144" y="577"/>
      <point x="144" y="379" type="curve" smooth="yes"/>
      <point x="144" y="119"/>
      <point x="355" y="-20"/>
    </contour>
    <contour>
      <point x="663" y="165" type="curve" smooth="yes"/>
      <point x="506" y="165"/>
      <point x="427" y="241"/>
      <point x="427" y="393" type="curve" smooth="yes"/>
      <point x="427" y="551"/>
      <point x="527" y="654"/>
      <point x="663" y="691" type="curve"/>
      <point x="800" y="654"/>
      <point x="895" y="547"/>
      <point x="895" y="394" type="curve" smooth="yes"/>
      <point x="895" y="239"/>
      <point x="824" y="165"/>
    </contour>
    <contour>
      <point x="663" y="829" type="curve"/>
      <point x="522" y="873"/>
      <point x="443" y="971"/>
      <point x="443" y="1104" type="curve" smooth="yes"/>
      <point x="443" y="1224"/>
      <point x="531" y="1296"/>
      <point x="663" y="1296" type="curve" smooth="yes"/>
      <point x="795" y="1296"/>
      <point x="879" y="1225"/>
      <point x="879" y="1104" type="curve" smooth="yes"/>
      <point x="879" y="972"/>
      <point x="805" y="873"/>
    </contour>
  </outline>
</glyph>
<glyph name="colon" format="1">
  <advance width="684"/>
  <unicode hex="003A"/>
  <outline>
    <contour>
      <point x="344" y="-8" type="curve" smooth="yes"/>
      <point x="434" y="-8"/>
      <point x="492" y="49"/>
      <point x="492" y="136" type="curve" smooth="yes"/>
      <point x="492" y="226"/>
      <point x="434" y="285"/>
      <point x="344" y="285" type="curve" smooth="yes"/>
      <point x="255" y="285"/>
      <point x="194" y="226"/>
      <point x="194" y="136" type="curve" smooth="yes"/>
      <point x="194" y="48"/>
      <point x="256" y="-8"/>
    </contour>
    <contour>
      <point x="344" y="809" type="curve" smooth="yes"/>
      <point x="434" y="809"/>
      <point x="492" y="866"/>
      <point x="492" y="953" type="curve" smooth="yes"/>
      <point x="492" y="1043"/>
      <point x="434" y="1102"/>
      <point x="344" y="1102" type="curve" smooth="yes"/>
      <point x="255" y="1102"/>
      <point x="194" y="1043"/>
      <point x="194" y="953" type="curve" smooth="yes"/>
      <point x="194" y="865"/>
      <point x="256" y="809"/>
    </contour>
  </outline>
</glyph>
<glyph name="semicolon" format="1">
  <advance width="741"/>
  <unicode hex="003B"/>
  <outline>
    <contour>
      <point x="225" y="-328" type="curve"/>
      <point x="385" y="-328" type="line"/>
      <point x="506" y="125" type="line"/>
      <point x="506" y="261" type="line"/>
      <point x="263" y="261" type="line"/>
      <point x="263" y="225"/>
      <point x="225" y="-328"/>
    </contour>
    <contour>
      <point x="379" y="808" type="curve" smooth="yes"/>
      <point x="468" y="808"/>
      <point x="527" y="865"/>
      <point x="527" y="953" type="curve" smooth="yes"/>
      <point x="527" y="1043"/>
      <point x="468" y="1101"/>
      <point x="379" y="1101" type="curve" smooth="yes"/>
      <point x="289" y="1101"/>
      <point x="229" y="1043"/>
      <point x="229" y="953" type="curve" smooth="yes"/>
      <point x="229" y="864"/>
      <point x="291" y="808"/>
    </contour>
  </outline>
</glyph>
<glyph name="at" format="1">
  <advance width="1985"/>
  <unicode hex="0040"/>
  <outline>
    <contour>
      <point x="977" y="-159" type="curve" smooth="yes"/>
      <point x="1181" y="-159"/>
      <point x="1391" y="-109"/>
      <point x="1522" y="-13" type="curve"/>
      <point x="1467" y="124" type="line"/>
      <point x="1330" y="41"/>
      <point x="1152" y="9"/>
      <point x="980" y="9" type="curve" smooth="yes"/>
      <point x="583" y="9"/>
      <point x="358" y="284"/>
      <point x="358" y="655" type="curve" smooth="yes"/>
      <point x="358" y="1040"/>
      <point x="613" y="1370"/>
      <point x="1038" y="1370" type="curve" smooth="yes"/>
      <point x="1457" y="1370"/>
      <point x="1653" y="1106"/>
      <point x="1653" y="806" type="curve" smooth="yes"/>
      <point x="1653" y="536"/>
      <point x="1542" y="402"/>
      <point x="1439" y="402" type="curve" smooth="yes"/>
      <point x="1379" y="402"/>
      <point x="1336" y="452"/>
      <point x="1336" y="530" type="curve" smooth="yes"/>
      <point x="1336" y="658"/>
      <point x="1374" y="851"/>
      <point x="1402" y="1062" type="curve"/>
      <point x="1324" y="1104"/>
      <point x="1179" y="1145"/>
      <point x="1053" y="1145" type="curve" smooth="yes"/>
      <point x="748" y="1145"/>
      <point x="580" y="876"/>
      <point x="580" y="616" type="curve" smooth="yes"/>
      <point x="580" y="409"/>
      <point x="689" y="242"/>
      <point x="912" y="242" type="curve" smooth="yes"/>
      <point x="1048" y="242"/>
      <point x="1148" y="343"/>
      <point x="1198" y="470" type="curve"/>
      <point x="1221" y="318"/>
      <point x="1322" y="250"/>
      <point x="1439" y="250" type="curve"/>
      <point x="1627" y="250"/>
      <point x="1844" y="435"/>
      <point x="1844" y="798" type="curve" smooth="yes"/>
      <point x="1844" y="1246"/>
      <point x="1494" y="1540"/>
      <point x="1045" y="1540" type="curve" smooth="yes"/>
      <point x="528" y="1540"/>
      <point x="149" y="1157"/>
      <point x="149" y="659" type="curve" smooth="yes"/>
      <point x="149" y="144"/>
      <point x="487" y="-159"/>
    </contour>
    <contour>
      <point x="930" y="396" type="curve" smooth="yes"/>
      <point x="830" y="396"/>
      <point x="784" y="473"/>
      <point x="784" y="610" type="curve" smooth="yes"/>
      <point x="784" y="820"/>
      <point x="897" y="997"/>
      <point x="1069" y="997" type="curve" smooth="yes"/>
      <point x="1097" y="997"/>
      <point x="1150" y="990"/>
      <point x="1189" y="983" type="curve"/>
      <point x="1149" y="737" type="line"/>
      <point x="1117" y="518"/>
      <point x="1064" y="396"/>
    </contour>
  </outline>
</glyph>
<glyph name="C" format="1">
  <advance width="1516"/>
  <unicode hex="0043"/>
  <outline>
    <contour>
      <point x="830" y="1456" type="move" name="top"/>
    </contour>
    <contour>
      <point x="827" y="0" type="move" name="bot"/>
    </contour>
    <contour>
      <point x="827" y="-20" type="curve" smooth="yes"/>
      <point x="1183" y="-20"/>
      <point x="1373" y="186"/>
      <point x="1418" y="395" type="curve"/>
      <point x="1205" y="471" type="line"/>
      <point x="1183" y="471" type="line"/>
      <point x="1148" y="308"/>
      <point x="1027" y="187"/>
      <point x="839" y="187" type="curve" smooth="yes"/>
      <point x="603" y="187"/>
      <point x="439" y="348"/>
      <point x="439" y="731" type="curve" smooth="yes"/>
      <point x="439" y="1130"/>
      <point x="619" y="1269"/>
      <point x="843" y="1269" type="curve" smooth="yes"/>
      <point x="1029" y="1269"/>
      <point x="1146" y="1149"/>
      <point x="1181" y="985" type="curve"/>
      <point x="1203" y="985" type="line"/>
      <point x="1416" y="1060" type="line"/>
      <point x="1372" y="1268"/>
      <point x="1174" y="1478"/>
      <point x="827" y="1478" type="curve" smooth="yes"/>
      <point x="398" y="1478"/>
      <point x="133" y="1204"/>
      <point x="133" y="731" type="curve" smooth="yes"/>
      <point x="133" y="251"/>
      <point x="398" y="-20"/>
    </contour>
  </outline>
</glyph>
<glyph name="D" format="1">
  <advance width="1528"/>
  <unicode hex="0044"/>
  <outline>
    <contour>
      <point x="778" y="1456" type="move" name="top"/>
    </contour>
    <contour>
      <point x="774" y="0" type="move" name="bot"/>
    </contour>
    <contour>
      <point x="344" y="757" type="move" name="mid"/>
    </contour>
    <contour>
      <point x="578" y="196" type="curve" smooth="yes"/>
      <point x="548" y="196"/>
      <point x="512" y="197"/>
      <point x="477" y="201" type="curve"/>
      <point x="477" y="1260" type="line"/>
      <point x="522" y="1265"/>
      <point x="564" y="1267"/>
      <point x="600" y="1267" type="curve" smooth="yes"/>
      <point x="1039" y="1267"/>
      <point x="1111" y="1044"/>
      <point x="1111" y="747" type="curve" smooth="yes"/>
      <point x="1111" y="417"/>
      <point x="995" y="196"/>
    </contour>
    <contour>
      <point x="500" y="-11" type="curve" smooth="yes"/>
      <point x="1182" y="-11"/>
      <point x="1395" y="299"/>
      <point x="1395" y="752" type="curve" smooth="yes"/>
      <point x="1395" y="1227"/>
      <point x="1197" y="1464"/>
      <point x="546" y="1464" type="curve" smooth="yes"/>
      <point x="439" y="1464"/>
      <point x="319" y="1458"/>
      <point x="187" y="1444" type="curve"/>
      <point x="187" y="8" type="line"/>
      <point x="300" y="-5"/>
      <point x="405" y="-11"/>
    </contour>
  </outline>
</glyph>
<glyph name="E" format="1">
  <advance width="1336"/>
  <unicode hex="0045"/>
  <outline>
    <contour>
      <point x="748" y="1456" type="move" name="top"/>
    </contour>
    <contour>
      <point x="936" y="0" type="move" name="ogonek"/>
    </contour>
    <contour>
      <point x="687" y="0" type="move" name="bot"/>
    </contour>
    <contour>
      <point x="187" y="0" type="line"/>
      <point x="1199" y="0" type="line"/>
      <point x="1207" y="206" type="line"/>
      <point x="477" y="206" type="line"/>
      <point x="477" y="648" type="line"/>
      <point x="1138" y="648" type="line"/>
      <point x="1138" y="850" type="line"/>
      <point x="477" y="850" type="line"/>
      <point x="477" y="1255" type="line"/>
      <point x="1175" y="1255" type="line"/>
      <point x="1189" y="1456" type="line"/>
      <point x="187" y="1456" type="line"/>
    </contour>
  </outline>
</glyph>
<glyph name="F" format="1">
  <advance width="1230"/>
  <unicode hex="0046"/>
  <outline>
    <contour>
      <point x="732" y="1456" type="move" name="top"/>
    </contour>
    <contour>
      <point x="187" y="0" type="line"/>
      <point x="477" y="0" type="line"/>
      <point x="477" y="623" type="line"/>
      <point x="1092" y="623" type="line"/>
      <point x="1092" y="822" type="line"/>
      <point x="477" y="822" type="line"/>
      <point x="477" y="1248" type="line"/>
      <point x="1162" y="1248" type="line"/>
      <point x="1176" y="1456" type="line"/>
      <point x="187" y="1456" type="line"/>
    </contour>
  </outline>
</glyph>
<glyph name="G" format="1">
  <advance width="1538"/>
  <unicode hex="0047"/>
  <outline>
    <contour>
      <point x="819" y="1456" type="move" name="top"/>
    </contour>
    <contour>
      <point x="781" y="0" type="move" name="bot"/>
    </contour>
    <contour>
      <point x="836" y="-20" type="curve" smooth="yes"/>
      <point x="1060" y="-20"/>
      <point x="1250" y="23"/>
      <point x="1392" y="79" type="curve"/>
      <point x="1392" y="783" type="line"/>
      <point x="838" y="783" type="line"/>
      <point x="829" y="610" type="line"/>
      <point x="1144" y="589" type="line"/>
      <point x="1144" y="221" type="line"/>
      <point x="1103" y="209"/>
      <point x="1007" y="187"/>
      <point x="882" y="187" type="curve" smooth="yes"/>
      <point x="599" y="187"/>
      <point x="439" y="350"/>
      <point x="439" y="732" type="curve" smooth="yes"/>
      <point x="439" y="1072"/>
      <point x="607" y="1267"/>
      <point x="891" y="1267" type="curve" smooth="yes"/>
      <point x="1058" y="1267"/>
      <point x="1173" y="1197"/>
      <point x="1241" y="1104" type="curve"/>
      <point x="1259" y="1104" type="line"/>
      <point x="1402" y="1244" type="line"/>
      <point x="1309" y="1378"/>
      <point x="1141" y="1477"/>
      <point x="872" y="1477" type="curve" smooth="yes"/>
      <point x="437" y="1477"/>
      <point x="133" y="1210"/>
      <point x="133" y="731" type="curve" smooth="yes"/>
      <point x="133" y="264"/>
      <point x="384" y="-20"/>
    </contour>
  </outline>
</glyph>
<glyph name="I" format="1">
  <advance width="1014"/>
  <unicode hex="0049"/>
  <outline>
    <contour>
      <point x="507" y="1456" type="move" name="top"/>
    </contour>
    <contour>
      <point x="517" y="0" type="move" name="ogonek"/>
    </contour>
    <contour>
      <point x="154" y="-3" type="line"/>
      <point x="855" y="-3" type="line"/>
      <point x="855" y="160" type="line"/>
      <point x="652" y="160" type="line"/>
      <point x="652" y="1293" type="line"/>
      <point x="855" y="1293" type="line"/>
      <point x="855" y="1456" type="line"/>
      <point x="154" y="1456" type="line"/>
      <point x="154" y="1293" type="line"/>
      <point x="361" y="1293" type="line"/>
      <point x="361" y="160" type="line"/>
      <point x="154" y="160" type="line"/>
    </contour>
  </outline>
</glyph>
<glyph name="P" format="1">
  <advance width="1385"/>
  <unicode hex="0050"/>
  <outline>
    <contour>
      <point x="713" y="1456" type="move" name="top"/>
    </contour>
    <contour>
      <point x="187" y="0" type="line"/>
      <point x="477" y="0" type="line"/>
      <point x="477" y="564" type="line"/>
      <point x="541" y="559"/>
      <point x="599" y="557"/>
      <point x="652" y="557" type="curve" smooth="yes"/>
      <point x="1161" y="557"/>
      <point x="1304" y="744"/>
      <point x="1304" y="1034" type="curve" smooth="yes"/>
      <point x="1304" y="1326"/>
      <point x="1138" y="1465"/>
      <point x="593" y="1465" type="curve" smooth="yes"/>
      <point x="477" y="1465"/>
      <point x="342" y="1457"/>
      <point x="187" y="1443" type="curve"/>
    </contour>
    <contour>
      <point x="627" y="750" type="curve" smooth="yes"/>
      <point x="583" y="750"/>
      <point x="534" y="752"/>
      <point x="477" y="756" type="curve"/>
      <point x="477" y="1267" type="line"/>
      <point x="538" y="1273"/>
      <point x="591" y="1276"/>
      <point x="637" y="1276" type="curve" smooth="yes"/>
      <point x="971" y="1276"/>
      <point x="1029" y="1173"/>
      <point x="1029" y="1023" type="curve" smooth="yes"/>
      <point x="1029" y="862"/>
      <point x="962" y="750"/>
    </contour>
  </outline>
</glyph>
<glyph name="Q" format="1">
  <advance width="1631"/>
  <unicode hex="0051"/>
  <outline>
    <contour>
      <point x="1207" y="-491" type="curve"/>
      <point x="1391" y="-344" type="line"/>
      <point x="1234" y="-201"/>
      <point x="1113" y="-40"/>
      <point x="1040" y="98" type="curve"/>
      <point x="785" y="63" type="line"/>
      <point x="837" y="-66"/>
      <point x="1053" y="-356"/>
    </contour>
    <component base="O"/>
  </outline>
</glyph>
<glyph name="S" format="1">
  <advance width="1242"/>
  <unicode hex="0053"/>
  <outline>
    <contour>
      <point x="609" y="1467" type="move" name="top"/>
    </contour>
    <contour>
      <point x="623" y="0" type="move" name="bot"/>
    </contour>
    <contour>
      <point x="615" y="-20" type="curve" smooth="yes"/>
      <point x="893" y="-20"/>
      <point x="1134" y="106"/>
      <point x="1134" y="399" type="curve" smooth="yes"/>
      <point x="1134" y="660"/>
      <point x="1001" y="741"/>
      <point x="778" y="830" type="curve"/>
      <point x="591" y="905" type="line"/>
      <point x="447" y="963"/>
      <point x="399" y="997"/>
      <point x="399" y="1095" type="curve" smooth="yes"/>
      <point x="399" y="1226"/>
      <point x="507" y="1274"/>
      <point x="632" y="1274" type="curve" smooth="yes"/>
      <point x="756" y="1274"/>
      <point x="858" y="1225"/>
      <point x="920" y="1127" type="curve"/>
      <point x="940" y="1127" type="line"/>
      <point x="1104" y="1240" type="line"/>
      <point x="1032" y="1369"/>
      <point x="866" y="1477"/>
      <point x="622" y="1477" type="curve" smooth="yes"/>
      <point x="354" y="1477"/>
      <point x="112" y="1374"/>
      <point x="112" y="1068" type="curve" smooth="yes"/>
      <point x="112" y="854"/>
      <point x="225" y="773"/>
      <point x="404" y="700" type="curve" smooth="yes"/>
      <point x="618" y="612" type="line" smooth="yes"/>
      <point x="802" y="536"/>
      <point x="847" y="497"/>
      <point x="847" y="388" type="curve" smooth="yes"/>
      <point x="847" y="249"/>
      <point x="738" y="193"/>
      <point x="600" y="193" type="curve" smooth="yes"/>
      <point x="461" y="193"/>
      <point x="347" y="255"/>
      <point x="284" y="354" type="curve"/>
      <point x="261" y="354" type="line"/>
      <point x="91" y="217" type="line"/>
      <point x="163" y="94"/>
      <point x="351" y="-20"/>
    </contour>
  </outline>
</glyph>
<glyph name="V" format="1">
  <advance width="1410"/>
  <unicode hex="0056"/>
  <outline>
    <contour>
      <point x="537" y="-3" type="line"/>
      <point x="846" y="-3" type="line"/>
      <point x="1369" y="1456" type="line"/>
      <point x="1079" y="1456" type="line"/>
      <point x="990" y="1209"/>
      <point x="784" y="540"/>
      <point x="698" y="290" type="curve"/>
      <point x="580" y="684"/>
      <point x="450" y="1067"/>
      <point x="326" y="1456" type="curve"/>
      <point x="41" y="1456" type="line"/>
    </contour>
  </outline>
</glyph>
<glyph name="Y" format="1">
  <advance width="1356"/>
  <unicode hex="0059"/>
  <outline>
    <contour>
      <point x="680" y="1456" type="move" name="top"/>
    </contour>
    <contour>
      <point x="533" y="0" type="line"/>
      <point x="823" y="0" type="line"/>
      <point x="823" y="544" type="line"/>
      <point x="1319" y="1456" type="line"/>
      <point x="1018" y="1456" type="line"/>
      <point x="677" y="810" type="line"/>
      <point x="333" y="1456" type="line"/>
      <point x="36" y="1456" type="line"/>
      <point x="533" y="544" type="line"/>
    </contour>
  </outline>
</glyph>
<glyph name="Z" format="1">
  <advance width="1230"/>
  <unicode hex="005A"/>
  <outline>
    <contour>
      <point x="653" y="1456" type="move" name="top"/>
    </contour>
    <contour>
      <point x="623" y="0" type="move" name="bot"/>
    </contour>
    <contour>
      <point x="100" y="0" type="line"/>
      <point x="1157" y="0" type="line"/>
      <point x="1152" y="194" type="line"/>
      <point x="440" y="194" type="line"/>
      <point x="1140" y="1282" type="line"/>
      <point x="1137" y="1456" type="line"/>
      <point x="119" y="1456" type="line"/>
      <point x="128" y="1261" type="line"/>
      <point x="822" y="1261" type="line"/>
      <point x="100" y="166" type="line"/>
    </contour>
  </outline>
</glyph>
<glyph name="grave" format="1">
  <advance width="1007"/>
  <unicode hex="0060"/>
  <outline>
    <contour>
      <point x="518" y="1074" type="move" name="_top"/>
    </contour>
    <contour>
      <point x="415" y="1208" type="line"/>
      <point x="574" y="1208" type="line"/>
      <point x="391" y="1601" type="line"/>
      <point x="90" y="1601" type="line"/>
    </contour>
  </outline>
</glyph>
<glyph name="a" format="1">
  <advance width="1145"/>
  <unicode hex="0061"/>
  <outline>
    <contour>
      <point x="562" y="1082" type="move" name="top"/>
    </contour>
    <contour>
      <point x="898" y="0" type="move" name="ogonek"/>
    </contour>
    <contour>
      <point x="568" y="0" type="move" name="bot"/>
    </contour>
    <contour>
      <point x="440" y="-18" type="curve" smooth="yes"/>
      <point x="596" y="-18"/>
      <point x="699" y="38"/>
      <point x="778" y="126" type="curve"/>
      <point x="804" y="0" type="line"/>
      <point x="1014" y="0" type="line"/>
      <point x="1014" y="668" type="line" smooth="yes"/>
      <point x="1014" y="982"/>
      <point x="827" y="1103"/>
      <point x="576" y="1103" type="curve" smooth="yes"/>
      <point x="429" y="1103"/>
      <point x="270" y="1065"/>
      <point x="137" y="992" type="curve"/>
      <point x="196" y="816" type="line"/>
      <point x="309" y="874"/>
      <point x="442" y="908"/>
      <point x="541" y="908" type="curve" smooth="yes"/>
      <point x="672" y="908"/>
      <point x="745" y="850"/>
      <point x="745" y="709" type="curve" smooth="yes"/>
      <point x="745" y="611" type="line"/>
      <point x="550" y="613" type="line" smooth="yes"/>
      <point x="294" y="613"/>
      <point x="98" y="524"/>
      <point x="98" y="300" type="curve" smooth="yes"/>
      <point x="98" y="88"/>
      <point x="238" y="-18"/>
    </contour>
    <contour>
      <point x="514" y="143" type="curve" smooth="yes"/>
      <point x="423" y="143"/>
      <point x="346" y="186"/>
      <point x="346" y="301" type="curve" smooth="yes"/>
      <point x="346" y="425"/>
      <point x="438" y="473"/>
      <point x="609" y="473" type="curve" smooth="yes"/>
      <point x="744" y="472" type="line"/>
      <point x="744" y="250" type="line"/>
      <point x="696" y="190"/>
      <point x="615" y="143"/>
    </contour>
  </outline>
</glyph>
<glyph name="b" format="1">
  <advance width="1251"/>
  <unicode hex="0062"/>
  <outline>
    <contour>
      <point x="726" y="1082" type="move" name="top"/>
    </contour>
    <contour>
      <point x="700" y="-20" type="curve" smooth="yes"/>
      <point x="996" y="-20"/>
      <point x="1152" y="211"/>
      <point x="1152" y="546" type="curve" smooth="yes"/>
      <point x="1152" y="866"/>
      <point x="1015" y="1104"/>
      <point x="725" y="1104" type="curve" smooth="yes"/>
      <point x="596" y="1104"/>
      <point x="481" y="1055"/>
      <point x="416" y="916" type="curve"/>
      <point x="424" y="1130" type="line"/>
      <point x="424" y="1560" type="line"/>
      <point x="152" y="1540" type="line"/>
      <point x="152" y="0" type="line"/>
      <point x="388" y="0" type="line"/>
      <point x="399" y="125" type="line"/>
      <point x="454" y="49"/>
      <point x="553" y="-20"/>
    </contour>
    <contour>
      <point x="652" y="163" type="curve" smooth="yes"/>
      <point x="541" y="163"/>
      <point x="470" y="205"/>
      <point x="421" y="271" type="curve"/>
      <point x="421" y="562" type="line" smooth="yes"/>
      <point x="421" y="810"/>
      <point x="514" y="920"/>
      <point x="668" y="920" type="curve" smooth="yes"/>
      <point x="811" y="920"/>
      <point x="874" y="799"/>
      <point x="874" y="546" type="curve" smooth="yes"/>
      <point x="874" y="289"/>
      <point x="793" y="163"/>
    </contour>
  </outline>
</glyph>
<glyph name="c" format="1">
  <advance width="1113"/>
  <unicode hex="0063"/>
  <outline>
    <contour>
      <point x="623" y="1083" type="move" name="top"/>
    </contour>
    <contour>
      <point x="618" y="1" type="move" name="bot"/>
    </contour>
    <contour>
      <point x="626" y="-20" type="curve" smooth="yes"/>
      <point x="849" y="-20"/>
      <point x="968" y="79"/>
      <point x="1034" y="226" type="curve"/>
      <point x="878" y="308" type="line"/>
      <point x="865" y="308" type="line"/>
      <point x="814" y="217"/>
      <point x="746" y="170"/>
      <point x="635" y="171" type="curve" smooth="yes"/>
      <point x="473" y="173"/>
      <point x="375" y="287"/>
      <point x="375" y="542" type="curve" smooth="yes"/>
      <point x="375" y="795"/>
      <point x="475" y="913"/>
      <point x="638" y="913" type="curve" smooth="yes"/>
      <point x="748" y="914"/>
      <point x="816" y="866"/>
      <point x="868" y="774" type="curve"/>
      <point x="881" y="774" type="line"/>
      <point x="1036" y="858" type="line"/>
      <point x="969" y="1005"/>
      <point x="851" y="1104"/>
      <point x="628" y="1104" type="curve" smooth="yes"/>
      <point x="303" y="1104"/>
      <point x="98" y="888"/>
      <point x="98" y="542" type="curve" smooth="yes"/>
      <point x="98" y="197"/>
      <point x="302" y="-20"/>
    </contour>
  </outline>
</glyph>
<glyph name="d" format="1">
  <advance width="1257"/>
  <unicode hex="0064"/>
  <outline>
    <contour>
      <point x="497" y="1082" type="move" name="top"/>
    </contour>
    <contour>
      <point x="1070" y="1145" type="move" name="caron.alt"/>
    </contour>
    <contour>
      <point x="952" y="1302" type="move" name="mid"/>
    </contour>
    <contour>
      <point x="548" y="-20" type="curve" smooth="yes"/>
      <point x="679" y="-20"/>
      <point x="787" y="39"/>
      <point x="852" y="136" type="curve"/>
      <point x="861" y="0" type="line"/>
      <point x="1103" y="0" type="line"/>
      <point x="1103" y="1560" type="line"/>
      <point x="828" y="1540" type="line"/>
      <point x="828" y="1145" type="line"/>
      <point x="832" y="986" type="line"/>
      <point x="777" y="1050"/>
      <point x="688" y="1102"/>
      <point x="556" y="1103" type="curve"/>
      <point x="259" y="1102"/>
      <point x="100" y="874"/>
      <point x="100" y="538" type="curve" smooth="yes"/>
      <point x="100" y="215"/>
      <point x="252" y="-20"/>
    </contour>
    <contour>
      <point x="605" y="164" type="curve" smooth="yes"/>
      <point x="462" y="164"/>
      <point x="377" y="275"/>
      <point x="377" y="540" type="curve" smooth="yes"/>
      <point x="377" y="817"/>
      <point x="471" y="920"/>
      <point x="611" y="920" type="curve" smooth="yes"/>
      <point x="712" y="920"/>
      <point x="786" y="879"/>
      <point x="830" y="818" type="curve"/>
      <point x="830" y="270" type="line"/>
      <point x="781" y="201"/>
      <point x="701" y="164"/>
    </contour>
  </outline>
</glyph>
<glyph name="e" format="1">
  <advance width="1173"/>
  <unicode hex="0065"/>
  <outline>
    <contour>
      <point x="625" y="1082" type="move" name="top"/>
    </contour>
    <contour>
      <point x="861" y="30" type="move" name="ogonek"/>
    </contour>
    <contour>
      <point x="648" y="1" type="move" name="bot"/>
    </contour>
    <contour>
      <point x="651" y="-20" type="curve" smooth="yes"/>
      <point x="819" y="-20"/>
      <point x="966" y="30"/>
      <point x="1052" y="101" type="curve"/>
      <point x="992" y="253" type="line"/>
      <point x="977" y="253" type="line"/>
      <point x="891" y="201"/>
      <point x="800" y="163"/>
      <point x="683" y="163" type="curve" smooth="yes"/>
      <point x="517" y="163"/>
      <point x="390" y="266"/>
      <point x="374" y="475" type="curve"/>
      <point x="1063" y="475" type="line"/>
      <point x="1063" y="477"/>
      <point x="1074" y="544"/>
      <point x="1074" y="600" type="curve" smooth="yes"/>
      <point x="1069" y="902"/>
      <point x="927" y="1104"/>
      <point x="621" y="1104" type="curve" smooth="yes"/>
      <point x="317" y="1104"/>
      <point x="100" y="892"/>
      <point x="100" y="540" type="curve" smooth="yes"/>
      <point x="100" y="194"/>
      <point x="326" y="-20"/>
    </contour>
    <contour>
      <point x="372" y="631" type="line"/>
      <point x="385" y="826"/>
      <point x="488" y="922"/>
      <point x="632" y="922" type="curve" smooth="yes"/>
      <point x="771" y="922"/>
      <point x="841" y="827"/>
      <point x="843" y="631" type="curve"/>
    </contour>
  </outline>
</glyph>
<glyph name="g" format="1">
  <advance width="1232"/>
  <unicode hex="0067"/>
  <outline>
    <contour>
      <point x="591" y="1082" type="move" name="top"/>
    </contour>
    <contour>
      <point x="572" y="-500" type="curve" smooth="yes"/>
      <point x="898" y="-500"/>
      <point x="1093" y="-338"/>
      <point x="1093" y="18" type="curve" smooth="yes"/>
      <point x="1093" y="1082" type="line"/>
      <point x="837" y="1082" type="line"/>
      <point x="833" y="982" type="line"/>
      <point x="778" y="1049"/>
      <point x="689" y="1104"/>
      <point x="557" y="1104" type="curve" smooth="yes"/>
      <point x="308" y="1104"/>
      <point x="95" y="921"/>
      <point x="95" y="555" type="curve" smooth="yes"/>
      <point x="95" y="144"/>
      <point x="308" y="-10"/>
      <point x="548" y="-10" type="curve" smooth="yes"/>
      <point x="668" y="-10"/>
      <point x="770" y="25"/>
      <point x="836" y="95" type="curve"/>
      <point x="842" y="58"/>
      <point x="843" y="-3"/>
      <point x="843" y="-10" type="curve" smooth="yes"/>
      <point x="843" y="-238"/>
      <point x="722" y="-313"/>
      <point x="536" y="-313" type="curve" smooth="yes"/>
      <point x="449" y="-313"/>
      <point x="345" y="-294"/>
      <point x="258" y="-263" type="curve"/>
      <point x="231" y="-263" type="line"/>
      <point x="211" y="-449" type="line"/>
      <point x="313" y="-482"/>
      <point x="439" y="-500"/>
    </contour>
    <contour>
      <point x="607" y="163" type="curve" smooth="yes"/>
      <point x="454" y="163"/>
      <point x="372" y="294"/>
      <point x="372" y="555" type="curve" smooth="yes"/>
      <point x="372" y="822"/>
      <point x="475" y="920"/>
      <point x="609" y="920" type="curve" smooth="yes"/>
      <point x="710" y="920"/>
      <point x="771" y="885"/>
      <point x="826" y="817" type="curve"/>
      <point x="826" y="250" type="line"/>
      <point x="778" y="195"/>
      <point x="694" y="163"/>
    </contour>
  </outline>
</glyph>
<glyph name="i" format="1">
  <advance width="628"/>
  <unicode hex="0069"/>
  <outline>
    <contour>
      <point x="328" y="1082" type="move" name="top"/>
    </contour>
    <contour>
      <point x="321" y="0" type="move" name="ogonek"/>
    </contour>
    <contour>
      <point x="185" y="0" type="line"/>
      <point x="460" y="0" type="line"/>
      <point x="460" y="1082" type="line"/>
      <point x="185" y="1082" type="line"/>
    </contour>
    <component base="dotaccent" xOffset="50"/>
  </outline>
</glyph>
<glyph name="o" format="1">
  <advance width="1237"/>
  <unicode hex="006F"/>
  <outline>
    <contour>
      <point x="619" y="1082" type="move" name="top"/>
    </contour>
    <contour>
      <point x="691" y="1" type="move" name="ogonek"/>
    </contour>
    <contour>
      <point x="619" y="163" type="curve" smooth="yes"/>
      <point x="455" y="163"/>
      <point x="375" y="301"/>
      <point x="375" y="543" type="curve" smooth="yes"/>
      <point x="375" y="785"/>
      <point x="455" y="920"/>
      <point x="619" y="920" type="curve" smooth="yes"/>
      <point x="782" y="920"/>
      <point x="862" y="785"/>
      <point x="862" y="543" type="curve" smooth="yes"/>
      <point x="862" y="302"/>
      <point x="781" y="163"/>
    </contour>
    <contour>
      <point x="619" y="-21" type="curve" smooth="yes"/>
      <point x="946" y="-21"/>
      <point x="1138" y="208"/>
      <point x="1138" y="544" type="curve" smooth="yes"/>
      <point x="1138" y="879"/>
      <point x="946" y="1104"/>
      <point x="619" y="1104" type="curve" smooth="yes"/>
      <point x="290" y="1104"/>
      <point x="98" y="879"/>
      <point x="98" y="544" type="curve" smooth="yes"/>
      <point x="98" y="208"/>
      <point x="291" y="-21"/>
    </contour>
  </outline>
</glyph>
<glyph name="p" format="1">
  <advance width="1249"/>
  <unicode hex="0070"/>
  <outline>
    <contour>
      <point x="665" y="1082" type="move" name="top"/>
    </contour>
    <contour>
      <point x="150" y="-468" type="line"/>
      <point x="421" y="-468" type="line"/>
      <point x="421" y="-61" type="line"/>
      <point x="417" y="96" type="line"/>
      <point x="475" y="29"/>
      <point x="569" y="-20"/>
      <point x="700" y="-20" type="curve" smooth="yes"/>
      <point x="990" y="-20"/>
      <point x="1149" y="214"/>
      <point x="1149" y="545" type="curve" smooth="yes"/>
      <point x="1149" y="869"/>
      <point x="1010" y="1104"/>
      <point x="720" y="1104" type="curve" smooth="yes"/>
      <point x="562" y="1104"/>
      <point x="453" y="1024"/>
      <point x="402" y="887" type="curve"/>
      <point x="389" y="1082" type="line"/>
      <point x="150" y="1082" type="line"/>
    </contour>
    <contour>
      <point x="643" y="163" type="curve" smooth="yes"/>
      <point x="543" y="163"/>
      <point x="469" y="205"/>
      <point x="419" y="271" type="curve"/>
      <point x="419" y="666" type="line"/>
      <point x="435" y="818"/>
      <point x="511" y="920"/>
      <point x="660" y="920" type="curve" smooth="yes"/>
      <point x="803" y="920"/>
      <point x="873" y="799"/>
      <point x="873" y="546" type="curve" smooth="yes"/>
      <point x="873" y="269"/>
      <point x="784" y="163"/>
    </contour>
  </outline>
</glyph>
<glyph name="q" format="1">
  <advance width="1245"/>
  <unicode hex="0071"/>
  <outline>
    <contour>
      <point x="828" y="-468" type="line"/>
      <point x="1099" y="-468" type="line"/>
      <point x="1099" y="1082" type="line"/>
      <point x="860" y="1082" type="line"/>
      <point x="852" y="943" type="line"/>
      <point x="796" y="1035"/>
      <point x="699" y="1104"/>
      <point x="552" y="1104" type="curve" smooth="yes"/>
      <point x="260" y="1104"/>
      <point x="101" y="871"/>
      <point x="101" y="547" type="curve" smooth="yes"/>
      <point x="101" y="212"/>
      <point x="253" y="-20"/>
      <point x="555" y="-20" type="curve" smooth="yes"/>
      <point x="664" y="-20"/>
      <point x="764" y="19"/>
      <point x="832" y="94" type="curve"/>
      <point x="828" y="-37" type="line"/>
    </contour>
    <contour>
      <point x="612" y="163" type="curve" smooth="yes"/>
      <point x="470" y="163"/>
      <point x="377" y="266"/>
      <point x="377" y="547" type="curve" smooth="yes"/>
      <point x="377" y="808"/>
      <point x="463" y="920"/>
      <point x="604" y="920" type="curve" smooth="yes"/>
      <point x="702" y="920"/>
      <point x="781" y="879"/>
      <point x="831" y="802" type="curve"/>
      <point x="831" y="262" type="line"/>
      <point x="786" y="203"/>
      <point x="712" y="163"/>
    </contour>
  </outline>
</glyph>
<glyph name="r" format="1">
  <advance width="833"/>
  <unicode hex="0072"/>
  <outline>
    <contour>
      <point x="444" y="1082" type="move" name="top"/>
    </contour>
    <contour>
      <point x="331" y="0" type="move" name="bot"/>
    </contour>
    <contour>
      <point x="146" y="0" type="line"/>
      <point x="420" y="0" type="line"/>
      <point x="420" y="611" type="line" smooth="yes"/>
      <point x="420" y="777"/>
      <point x="536" y="883"/>
      <point x="707" y="883" type="curve" smooth="yes"/>
      <point x="715" y="883"/>
      <point x="756" y="881"/>
      <point x="771" y="878" type="curve"/>
      <point x="789" y="1082" type="line"/>
      <point x="756" y="1088"/>
      <point x="724" y="1091"/>
      <point x="690" y="1091" type="curve" smooth="yes"/>
      <point x="575" y="1091"/>
      <point x="467" y="1041"/>
      <point x="398" y="883" type="curve"/>
      <point x="380" y="1082" type="line"/>
      <point x="146" y="1082" type="line"/>
    </contour>
  </outline>
</glyph>
<glyph name="s" format="1">
  <advance width="1003"/>
  <unicode hex="0073"/>
  <outline>
    <contour>
      <point x="495" y="1082" type="move" name="top"/>
    </contour>
    <contour>
      <point x="498" y="1" type="move" name="bot"/>
    </contour>
    <contour>
      <point x="525" y="-20" type="curve" smooth="yes"/>
      <point x="765" y="-20"/>
      <point x="927" y="111"/>
      <point x="927" y="322" type="curve" smooth="yes"/>
      <point x="927" y="439"/>
      <point x="880" y="543"/>
      <point x="675" y="617" type="curve"/>
      <point x="519" y="679" type="line" smooth="yes"/>
      <point x="407" y="718"/>
      <point x="385" y="750"/>
      <point x="385" y="802" type="curve" smooth="yes"/>
      <point x="385" y="874"/>
      <point x="438" y="918"/>
      <point x="549" y="918" type="curve" smooth="yes"/>
      <point x="642" y="918"/>
      <point x="724" y="880"/>
      <point x="771" y="813" type="curve"/>
      <point x="783" y="813" type="line"/>
      <point x="912" y="922" type="line"/>
      <point x="836" y="1045"/>
      <point x="691" y="1104"/>
      <point x="512" y="1104" type="curve" smooth="yes"/>
      <point x="266" y="1104"/>
      <point x="109" y="987"/>
      <point x="109" y="797" type="curve" smooth="yes"/>
      <point x="109" y="652"/>
      <point x="171" y="562"/>
      <point x="402" y="482" type="curve" smooth="yes"/>
      <point x="534" y="434" type="line" smooth="yes"/>
      <point x="649" y="396"/>
      <point x="671" y="357"/>
      <point x="671" y="304" type="curve" smooth="yes"/>
      <point x="671" y="211"/>
      <point x="612" y="162"/>
      <point x="502" y="162" type="curve" smooth="yes"/>
      <point x="409" y="162"/>
      <point x="290" y="198"/>
      <point x="222" y="297" type="curve"/>
      <point x="200" y="297" type="line"/>
      <point x="69" y="181" type="line"/>
      <point x="157" y="47"/>
      <point x="328" y="-20"/>
    </contour>
  </outline>
</glyph>
<glyph name="v" format="1">
  <advance width="1091"/>
  <unicode hex="0076"/>
  <outline>
    <contour>
      <point x="413" y="0" type="line"/>
      <point x="688" y="0" type="line"/>
      <point x="1061" y="1082" type="line"/>
      <point x="786" y="1082" type="line"/>
      <point x="728" y="908"/>
      <point x="618" y="480"/>
      <point x="559" y="306" type="curve"/>
      <point x="477" y="565"/>
      <point x="395" y="823"/>
      <point x="314" y="1082" type="curve"/>
      <point x="32" y="1082" type="line"/>
    </contour>
  </outline>
</glyph>
<glyph name="w" format="1">
  <advance width="1565"/>
  <unicode hex="0077"/>
  <outline>
    <contour>
      <point x="794" y="1082" type="move" name="top"/>
    </contour>
    <contour>
      <point x="303" y="-3" type="line"/>
      <point x="547" y="-3" type="line"/>
      <point x="793" y="809" type="line"/>
      <point x="1012" y="-3" type="line"/>
      <point x="1265" y="-3" type="line"/>
      <point x="1546" y="1082" type="line"/>
      <point x="1308" y="1082" type="line"/>
      <point x="1139" y="303" type="line"/>
      <point x="922" y="1082" type="line"/>
      <point x="665" y="1082" type="line"/>
      <point x="443" y="296" type="line"/>
      <point x="273" y="1082" type="line"/>
      <point x="19" y="1082" type="line"/>
    </contour>
  </outline>
</glyph>
<glyph name="y" format="1">
  <advance width="1133"/>
  <unicode hex="0079"/>
  <outline>
    <contour>
      <point x="566" y="1082" type="move" name="top"/>
    </contour>
    <contour>
      <point x="475" y="-434" type="line"/>
      <point x="1119" y="1082" type="line"/>
      <point x="862" y="1082" type="line"/>
      <point x="578" y="367" type="line"/>
      <point x="276" y="1082" type="line"/>
      <point x="3" y="1082" type="line"/>
      <point x="443" y="100" type="line"/>
      <point x="252" y="-357" type="line"/>
    </contour>
  </outline>
</glyph>
<glyph name="z" format="1">
  <advance width="984"/>
  <unicode hex="007A"/>
  <outline>
    <contour>
      <point x="493" y="1082" type="move" name="top"/>
    </contour>
    <contour>
      <point x="496" y="0" type="move" name="bot"/>
    </contour>
    <contour>
      <point x="83" y="0" type="line"/>
      <point x="910" y="0" type="line"/>
      <point x="910" y="180" type="line"/>
      <point x="386" y="180" type="line"/>
      <point x="895" y="939" type="line"/>
      <point x="895" y="1082" type="line"/>
      <point x="95" y="1082" type="line"/>
      <point x="94" y="910" type="line"/>
      <point x="606" y="910" type="line"/>
      <point x="83" y="133" type="line"/>
    </contour>
  </outline>
</glyph>
<glyph name="braceleft" format="1">
  <advance width="913"/>
  <unicode hex="007B"/>
  <outline>
    <contour>
      <point x="783" y="-291" type="curve"/>
      <point x="783" y="-131" type="line"/>
      <point x="646" y="-129"/>
      <point x="611" y="-110"/>
      <point x="611" y="59" type="curve" smooth="yes"/>
      <point x="611" y="352" type="line" smooth="yes"/>
      <point x="611" y="491"/>
      <point x="582" y="594"/>
      <point x="412" y="626" type="curve"/>
      <point x="582" y="657"/>
      <point x="611" y="761"/>
      <point x="611" y="899" type="curve" smooth="yes"/>
      <point x="611" y="1194" type="line" smooth="yes"/>
      <point x="611" y="1362"/>
      <point x="646" y="1381"/>
      <point x="783" y="1384" type="curve"/>
      <point x="783" y="1543" type="line"/>
      <point x="540" y="1543"/>
      <point x="399" y="1506"/>
      <point x="399" y="1241" type="curve" smooth="yes"/>
      <point x="399" y="955" type="line" smooth="yes"/>
      <point x="399" y="798"/>
      <point x="393" y="716"/>
      <point x="190" y="716" type="curve"/>
      <point x="190" y="535" type="line"/>
      <point x="394" y="535"/>
      <point x="399" y="453"/>
      <point x="399" y="297" type="curve" smooth="yes"/>
      <point x="399" y="10" type="line" smooth="yes"/>
      <point x="399" y="-253"/>
      <point x="540" y="-291"/>
    </contour>
  </outline>
</glyph>
<glyph name="braceright" format="1">
  <advance width="913"/>
  <unicode hex="007D"/>
  <outline>
    <contour>
      <point x="146" y="-291" type="line"/>
      <point x="389" y="-291"/>
      <point x="530" y="-253"/>
      <point x="530" y="10" type="curve" smooth="yes"/>
      <point x="530" y="297" type="line" smooth="yes"/>
      <point x="530" y="453"/>
      <point x="535" y="535"/>
      <point x="739" y="535" type="curve"/>
      <point x="739" y="716" type="line"/>
      <point x="537" y="716"/>
      <point x="530" y="798"/>
      <point x="530" y="955" type="curve" smooth="yes"/>
      <point x="530" y="1241" type="line" smooth="yes"/>
      <point x="530" y="1506"/>
      <point x="389" y="1543"/>
      <point x="146" y="1543" type="curve"/>
      <point x="146" y="1384" type="line"/>
      <point x="284" y="1381"/>
      <point x="318" y="1362"/>
      <point x="318" y="1194" type="curve" smooth="yes"/>
      <point x="318" y="899" type="line" smooth="yes"/>
      <point x="318" y="761"/>
      <point x="347" y="657"/>
      <point x="517" y="626" type="curve"/>
      <point x="347" y="594"/>
      <point x="318" y="491"/>
      <point x="318" y="352" type="curve" smooth="yes"/>
      <point x="318" y="59" type="line" smooth="yes"/>
      <point x="318" y="-110"/>
      <point x="284" y="-129"/>
      <point x="146" y="-131" type="curve"/>
    </contour>
  </outline>
</glyph>
<glyph name="brokenbar" format="1">
  <advance width="715"/>
  <unicode hex="00A6"/>
  <outline>
    <contour>
      <point x="259" y="-311" type="line"/>
      <point x="441" y="-311" type="line"/>
      <point x="441" y="409" type="line"/>
      <point x="259" y="409" type="line"/>
    </contour>
    <contour>
      <point x="259" y="785" type="line"/>
      <point x="441" y="785" type="line"/>
      <point x="441" y="1503" type="line"/>
      <point x="259" y="1503" type="line"/>
    </contour>
  </outline>
</glyph>
<glyph name="section" format="1">
  <advance width="1048"/>
  <unicode hex="00A7"/>
  <outline>
    <contour>
      <point x="517" y="-20" type="curve" smooth="yes"/>
      <point x="725" y="-14"/>
      <point x="886" y="76"/>
      <point x="886" y="324" type="curve" smooth="yes"/>
      <point x="886" y="410"/>
      <point x="859" y="481"/>
      <point x="795" y="538" type="curve"/>
      <point x="850" y="591"/>
      <point x="891" y="656"/>
      <point x="891" y="755" type="curve" smooth="yes"/>
      <point x="891" y="889"/>
      <point x="838" y="971"/>
      <point x="639" y="1045" type="curve" smooth="yes"/>
      <point x="406" y="1132"/>
      <point x="385" y="1158"/>
      <point x="385" y="1222" type="curve" smooth="yes"/>
      <point x="385" y="1295"/>
      <point x="438" y="1335"/>
      <point x="552" y="1335" type="curve" smooth="yes"/>
      <point x="647" y="1335"/>
      <point x="744" y="1302"/>
      <point x="807" y="1269" type="curve"/>
      <point x="859" y="1426" type="line"/>
      <point x="760" y="1485"/>
      <point x="640" y="1517"/>
      <point x="531" y="1517" type="curve" smooth="yes"/>
      <point x="335" y="1517"/>
      <point x="158" y="1430"/>
      <point x="158" y="1210" type="curve" smooth="yes"/>
      <point x="158" y="1112"/>
      <point x="196" y="1039"/>
      <point x="284" y="975" type="curve"/>
      <point x="215" y="919"/>
      <point x="165" y="844"/>
      <point x="165" y="758" type="curve" smooth="yes"/>
      <point x="165" y="629"/>
      <point x="238" y="556"/>
      <point x="422" y="486" type="curve" smooth="yes"/>
      <point x="634" y="407"/>
      <point x="671" y="365"/>
      <point x="671" y="303" type="curve" smooth="yes"/>
      <point x="670" y="212"/>
      <point x="612" y="163"/>
      <point x="507" y="163" type="curve" smooth="yes"/>
      <point x="394" y="163"/>
      <point x="267" y="209"/>
      <point x="179" y="256" type="curve"/>
      <point x="179" y="62" type="line"/>
      <point x="283" y="8"/>
      <point x="430" y="-23"/>
    </contour>
    <contour>
      <point x="671" y="611" type="curve"/>
      <point x="654" y="618"/>
      <point x="606" y="640"/>
      <point x="537" y="661" type="curve" smooth="yes"/>
      <point x="391" y="720"/>
      <point x="353" y="742"/>
      <point x="353" y="806" type="curve" smooth="yes"/>
      <point x="353" y="853"/>
      <point x="376" y="890"/>
      <point x="409" y="907" type="curve"/>
      <point x="414" y="904"/>
      <point x="468" y="883"/>
      <point x="557" y="849" type="curve" smooth="yes"/>
      <point x="672" y="804"/>
      <point x="707" y="759"/>
      <point x="707" y="704" type="curve" smooth="yes"/>
      <point x="707" y="665"/>
      <point x="694" y="634"/>
    </contour>
  </outline>
</glyph>
<glyph name="copyright" format="1">
  <advance width="1754"/>
  <unicode hex="00A9"/>
  <outline>
    <contour>
      <point x="850" y="244" type="curve" smooth="yes"/>
      <point x="950" y="244"/>
      <point x="1049" y="271"/>
      <point x="1134" y="324" type="curve"/>
      <point x="1092" y="433" type="line"/>
      <point x="1012" y="387"/>
      <point x="935" y="368"/>
      <point x="860" y="368" type="curve" smooth="yes"/>
      <point x="679" y="368"/>
      <point x="534" y="497"/>
      <point x="534" y="734" type="curve" smooth="yes"/>
      <point x="534" y="963"/>
      <point x="678" y="1096"/>
      <point x="856" y="1096" type="curve" smooth="yes"/>
      <point x="928" y="1096"/>
      <point x="1012" y="1073"/>
      <point x="1086" y="1028" type="curve"/>
      <point x="1132" y="1137" type="line"/>
      <point x="1046" y="1192"/>
      <point x="947" y="1220"/>
      <point x="846" y="1220" type="curve" smooth="yes"/>
      <point x="598" y="1220"/>
      <point x="373" y="1038"/>
      <point x="373" y="732" type="curve" smooth="yes"/>
      <point x="373" y="423"/>
      <point x="601" y="244"/>
    </contour>
    <contour>
      <point x="829" y="86" type="curve" smooth="yes"/>
      <point x="493" y="86"/>
      <point x="198" y="341"/>
      <point x="198" y="728" type="curve" smooth="yes"/>
      <point x="198" y="1115"/>
      <point x="493" y="1369"/>
      <point x="829" y="1369" type="curve" smooth="yes"/>
      <point x="1166" y="1369"/>
      <point x="1462" y="1115"/>
      <point x="1462" y="728" type="curve" smooth="yes"/>
      <point x="1462" y="341"/>
      <point x="1166" y="86"/>
    </contour>
    <contour>
      <point x="829" y="-39" type="curve" smooth="yes"/>
      <point x="1240" y="-39"/>
      <point x="1606" y="265"/>
      <point x="1606" y="728" type="curve" smooth="yes"/>
      <point x="1606" y="1192"/>
      <point x="1239" y="1495"/>
      <point x="829" y="1495" type="curve" smooth="yes"/>
      <point x="420" y="1495"/>
      <point x="58" y="1192"/>
      <point x="58" y="728" type="curve" smooth="yes"/>
      <point x="58" y="265"/>
      <point x="420" y="-39"/>
    </contour>
  </outline>
</glyph>
<glyph name="ordfeminine" format="1">
  <advance width="1142"/>
  <unicode hex="00AA"/>
  <outline>
    <contour>
      <point x="441" y="593" type="curve" smooth="yes"/>
      <point x="576" y="593"/>
      <point x="665" y="641"/>
      <point x="733" y="717" type="curve"/>
      <point x="756" y="609" type="line"/>
      <point x="936" y="609" type="line"/>
      <point x="936" y="1185" type="line" smooth="yes"/>
      <point x="936" y="1455"/>
      <point x="776" y="1560"/>
      <point x="559" y="1560" type="curve" smooth="yes"/>
      <point x="433" y="1560"/>
      <point x="295" y="1527"/>
      <point x="181" y="1464" type="curve"/>
      <point x="232" y="1312" type="line"/>
      <point x="329" y="1363"/>
      <point x="444" y="1391"/>
      <point x="529" y="1391" type="curve" smooth="yes"/>
      <point x="642" y="1391"/>
      <point x="705" y="1342"/>
      <point x="705" y="1220" type="curve" smooth="yes"/>
      <point x="705" y="1136" type="line"/>
      <point x="537" y="1137" type="line" smooth="yes"/>
      <point x="317" y="1137"/>
      <point x="147" y="1061"/>
      <point x="147" y="868" type="curve" smooth="yes"/>
      <point x="147" y="684"/>
      <point x="267" y="593"/>
    </contour>
    <contour>
      <point x="506" y="733" type="curve" smooth="yes"/>
      <point x="427" y="733"/>
      <point x="361" y="770"/>
      <point x="361" y="869" type="curve" smooth="yes"/>
      <point x="361" y="976"/>
      <point x="440" y="1017"/>
      <point x="587" y="1017" type="curve" smooth="yes"/>
      <point x="704" y="1016" type="line"/>
      <point x="704" y="825" type="line"/>
      <point x="662" y="773"/>
      <point x="593" y="733"/>
    </contour>
  </outline>
</glyph>
<glyph name="registered" format="1">
  <advance width="1877"/>
  <unicode hex="00AE"/>
  <outline>
    <contour>
      <point x="614" y="309" type="line"/>
      <point x="760" y="309" type="line"/>
      <point x="760" y="714" type="line"/>
      <point x="897" y="714" type="line"/>
      <point x="901" y="708"/>
      <point x="1117" y="309"/>
      <point x="1117" y="309" type="curve"/>
      <point x="1284" y="309" type="line"/>
      <point x="1284" y="309"/>
      <point x="1056" y="713"/>
      <point x="1047" y="725" type="curve"/>
      <point x="1189" y="754"/>
      <point x="1243" y="830"/>
      <point x="1243" y="957" type="curve" smooth="yes"/>
      <point x="1243" y="1144"/>
      <point x="1126" y="1197"/>
      <point x="910" y="1197" type="curve" smooth="yes"/>
      <point x="614" y="1197" type="line"/>
    </contour>
    <contour>
      <point x="760" y="820" type="line"/>
      <point x="760" y="1080" type="line"/>
      <point x="791" y="1080"/>
      <point x="906" y="1080"/>
      <point x="915" y="1080" type="curve" smooth="yes"/>
      <point x="1049" y="1080"/>
      <point x="1100" y="1066"/>
      <point x="1100" y="951" type="curve" smooth="yes"/>
      <point x="1100" y="849"/>
      <point x="1044" y="820"/>
      <point x="903" y="820" type="curve" smooth="yes"/>
    </contour>
    <contour>
      <point x="910" y="86" type="curve" smooth="yes"/>
      <point x="577" y="86"/>
      <point x="287" y="341"/>
      <point x="287" y="728" type="curve" smooth="yes"/>
      <point x="287" y="1115"/>
      <point x="577" y="1370"/>
      <point x="910" y="1370" type="curve" smooth="yes"/>
      <point x="1242" y="1370"/>
      <point x="1534" y="1115"/>
      <point x="1534" y="728" type="curve" smooth="yes"/>
      <point x="1534" y="341"/>
      <point x="1242" y="86"/>
    </contour>
    <contour>
      <point x="910" y="-39" type="curve" smooth="yes"/>
      <point x="1315" y="-39"/>
      <point x="1676" y="265"/>
      <point x="1676" y="728" type="curve" smooth="yes"/>
      <point x="1676" y="1192"/>
      <point x="1315" y="1495"/>
      <point x="910" y="1495" type="curve" smooth="yes"/>
      <point x="505" y="1495"/>
      <point x="144" y="1192"/>
      <point x="144" y="728" type="curve" smooth="yes"/>
      <point x="144" y="265"/>
      <point x="505" y="-39"/>
    </contour>
  </outline>
</glyph>
<glyph name="periodcentered" format="1">
  <advance width="622"/>
  <unicode hex="00B7"/>
  <outline>
    <contour>
      <point x="416" y="476" type="curve" smooth="yes"/>
      <point x="502" y="476"/>
      <point x="560" y="535"/>
      <point x="560" y="626" type="curve" smooth="yes"/>
      <point x="560" y="714"/>
      <point x="502" y="771"/>
      <point x="416" y="771" type="curve" smooth="yes"/>
      <point x="329" y="771"/>
      <point x="271" y="714"/>
      <point x="271" y="626" type="curve" smooth="yes"/>
      <point x="271" y="535"/>
      <point x="329" y="476"/>
    </contour>
  </outline>
</glyph>
<glyph name="cedilla" format="1">
  <advance width="723"/>
  <unicode hex="00B8"/>
  <outline>
    <contour>
      <point x="461" y="17" type="move" name="_bot"/>
    </contour>
    <contour>
      <point x="403" y="-411" type="curve" smooth="yes"/>
      <point x="545" y="-411"/>
      <point x="656" y="-334"/>
      <point x="656" y="-205" type="curve" smooth="yes"/>
      <point x="656" y="-95"/>
      <point x="586" y="-38"/>
      <point x="488" y="-38" type="curve" smooth="yes"/>
      <point x="454" y="-38"/>
      <point x="416" y="-45"/>
      <point x="376" y="-60" type="curve"/>
      <point x="377" y="-122" type="line"/>
      <point x="393" y="-120"/>
      <point x="407" y="-119"/>
      <point x="420" y="-119" type="curve" smooth="yes"/>
      <point x="492" y="-119"/>
      <point x="517" y="-154"/>
      <point x="517" y="-197" type="curve" smooth="yes"/>
      <point x="517" y="-256"/>
      <point x="467" y="-295"/>
      <point x="389" y="-295" type="curve" smooth="yes"/>
      <point x="355" y="-295"/>
      <point x="316" y="-288"/>
      <point x="276" y="-272" type="curve"/>
      <point x="238" y="-376" type="line"/>
      <point x="292" y="-399"/>
      <point x="348" y="-411"/>
    </contour>
  </outline>
</glyph>
<glyph name="ordmasculine" format="1">
  <advance width="1008"/>
  <unicode hex="00BA"/>
  <outline>
    <contour>
      <point x="499" y="828" type="curve" smooth="yes"/>
      <point x="376" y="828"/>
      <point x="315" y="920"/>
      <point x="315" y="1088" type="curve" smooth="yes"/>
      <point x="315" y="1258"/>
      <point x="377" y="1352"/>
      <point x="499" y="1352" type="curve" smooth="yes"/>
      <point x="625" y="1352"/>
      <point x="690" y="1256"/>
      <point x="690" y="1086" type="curve" smooth="yes"/>
      <point x="690" y="919"/>
      <point x="628" y="828"/>
    </contour>
    <contour>
      <point x="499" y="665" type="curve" smooth="yes"/>
      <point x="743" y="665"/>
      <point x="889" y="834"/>
      <point x="889" y="1088" type="curve" smooth="yes"/>
      <point x="889" y="1348"/>
      <point x="754" y="1514"/>
      <point x="499" y="1514" type="curve" smooth="yes"/>
      <point x="247" y="1514"/>
      <point x="109" y="1346"/>
      <point x="109" y="1088" type="curve" smooth="yes"/>
      <point x="109" y="833"/>
      <point x="247" y="665"/>
    </contour>
  </outline>
</glyph>
<glyph name="onequarter" format="1">
  <advance width="1776"/>
  <unicode hex="00BC"/>
  <outline>
    <contour>
      <point x="122" y="597" type="line"/>
      <point x="579" y="597" type="line"/>
      <point x="579" y="736" type="line"/>
      <point x="442" y="736" type="line"/>
      <point x="442" y="1494" type="line"/>
      <point x="305" y="1494" type="line"/>
      <point x="272" y="1470"/>
      <point x="151" y="1404"/>
      <point x="108" y="1384" type="curve"/>
      <point x="108" y="1244" type="line"/>
      <point x="127" y="1251"/>
      <point x="239" y="1299"/>
      <point x="275" y="1318" type="curve"/>
      <point x="275" y="736" type="line"/>
      <point x="122" y="736" type="line"/>
    </contour>
    <contour>
      <point x="1407" y="0" type="line"/>
      <point x="1561" y="0" type="line"/>
      <point x="1561" y="184" type="line"/>
      <point x="1683" y="184" type="line"/>
      <point x="1682" y="309" type="line"/>
      <point x="1561" y="309" type="line"/>
      <point x="1561" y="868" type="line"/>
      <point x="1397" y="868" type="line"/>
      <point x="1017" y="303" type="line"/>
      <point x="1017" y="184" type="line"/>
      <point x="1407" y="184" type="line"/>
    </contour>
    <contour>
      <point x="357" y="0" type="line"/>
      <point x="542" y="0" type="line"/>
      <point x="1499" y="1494" type="line"/>
      <point x="1319" y="1494" type="line"/>
    </contour>
    <contour>
      <point x="1174" y="309" type="line"/>
      <point x="1407" y="663" type="line"/>
      <point x="1407" y="309" type="line"/>
    </contour>
  </outline>
</glyph>
<glyph name="AE" format="1">
  <advance width="1834"/>
  <unicode hex="00C6"/>
  <outline>
    <contour>
      <point x="-39" y="0" type="line"/>
      <point x="253" y="0" type="line"/>
      <point x="478" y="408" type="line"/>
      <point x="876" y="408" type="line"/>
      <point x="876" y="0" type="line"/>
      <point x="1742" y="0" type="line"/>
      <point x="1753" y="200" type="line"/>
      <point x="1114" y="200" type="line"/>
      <point x="1114" y="651" type="line"/>
      <point x="1681" y="651" type="line"/>
      <point x="1681" y="846" type="line"/>
      <point x="1114" y="846" type="line"/>
      <point x="1114" y="1261" type="line"/>
      <point x="1719" y="1261" type="line"/>
      <point x="1733" y="1456" type="line"/>
      <point x="799" y="1456" type="line"/>
    </contour>
    <contour>
      <point x="564" y="586" type="line"/>
      <point x="876" y="1165" type="line"/>
      <point x="876" y="586" type="line"/>
    </contour>
  </outline>
</glyph>
<glyph name="Thorn" format="1">
  <advance width="1337"/>
  <unicode hex="00DE"/>
  <outline>
    <contour>
      <point x="180" y="0" type="line"/>
      <point x="471" y="0" type="line"/>
      <point x="471" y="382" type="line"/>
      <point x="630" y="382" type="line" smooth="yes"/>
      <point x="1067" y="382"/>
      <point x="1217" y="541"/>
      <point x="1217" y="833" type="curve" smooth="yes"/>
      <point x="1217" y="1118"/>
      <point x="1029" y="1229"/>
      <point x="606" y="1229" type="curve" smooth="yes"/>
      <point x="471" y="1229" type="line"/>
      <point x="471" y="1475" type="line"/>
      <point x="180" y="1475" type="line"/>
    </contour>
    <contour>
      <point x="471" y="577" type="line"/>
      <point x="471" y="1038" type="line"/>
      <point x="617" y="1038" type="line" smooth="yes"/>
      <point x="862" y="1038"/>
      <point x="935" y="970"/>
      <point x="935" y="821" type="curve" smooth="yes"/>
      <point x="935" y="660"/>
      <point x="864" y="577"/>
      <point x="599" y="577" type="curve" smooth="yes"/>
    </contour>
  </outline>
</glyph>
<glyph name="germandbls" format="1">
  <advance width="1311"/>
  <unicode hex="00DF"/>
  <outline>
    <contour>
      <point x="883" y="-20" type="curve" smooth="yes"/>
      <point x="1121" y="-20"/>
      <point x="1244" y="104"/>
      <point x="1244" y="313" type="curve" smooth="yes"/>
      <point x="1244" y="643"/>
      <point x="860" y="726"/>
      <point x="860" y="807" type="curve" smooth="yes"/>
      <point x="860" y="874"/>
      <point x="1073" y="968"/>
      <point x="1073" y="1192" type="curve" smooth="yes"/>
      <point x="1073" y="1417"/>
      <point x="886" y="1543"/>
      <point x="634" y="1543" type="curve" smooth="yes"/>
      <point x="333" y="1543"/>
      <point x="142" y="1364"/>
      <point x="142" y="1060" type="curve" smooth="yes"/>
      <point x="142" y="0" type="line"/>
      <point x="416" y="0" type="line"/>
      <point x="416" y="1038" type="line" smooth="yes"/>
      <point x="416" y="1238"/>
      <point x="491" y="1346"/>
      <point x="648" y="1346" type="curve" smooth="yes"/>
      <point x="756" y="1346"/>
      <point x="819" y="1291"/>
      <point x="819" y="1191" type="curve" smooth="yes"/>
      <point x="819" y="1007"/>
      <point x="636" y="954"/>
      <point x="636" y="784" type="curve" smooth="yes"/>
      <point x="636" y="588"/>
      <point x="959" y="534"/>
      <point x="959" y="316" type="curve" smooth="yes"/>
      <point x="959" y="230"/>
      <point x="909" y="175"/>
      <point x="814" y="175" type="curve" smooth="yes"/>
      <point x="730" y="175"/>
      <point x="639" y="207"/>
      <point x="594" y="231" type="curve"/>
      <point x="538" y="54" type="line"/>
      <point x="643" y="8"/>
      <point x="775" y="-20"/>
    </contour>
  </outline>
</glyph>
<glyph name="ae" format="1">
  <advance width="1707"/>
  <unicode hex="00E6"/>
  <outline>
    <contour>
      <point x="912" y="1082" type="move" name="top"/>
    </contour>
    <contour>
      <point x="1229" y="-20" type="curve" smooth="yes"/>
      <point x="1397" y="-20"/>
      <point x="1544" y="30"/>
      <point x="1631" y="101" type="curve"/>
      <point x="1576" y="259" type="line"/>
      <point x="1490" y="207"/>
      <point x="1393" y="163"/>
      <point x="1261" y="163" type="curve" smooth="yes"/>
      <point x="1109" y="163"/>
      <point x="984" y="220"/>
      <point x="963" y="452" type="curve"/>
      <point x="1038" y="450"/>
      <point x="1109" y="448"/>
      <point x="1175" y="449" type="curve" smooth="yes"/>
      <point x="1448" y="459"/>
      <point x="1631" y="525"/>
      <point x="1631" y="745" type="curve" smooth="yes"/>
      <point x="1631" y="920"/>
      <point x="1511" y="1102"/>
      <point x="1230" y="1102" type="curve" smooth="yes"/>
      <point x="1065" y="1102"/>
      <point x="947" y="1039"/>
      <point x="873" y="917" type="curve"/>
      <point x="833" y="1042"/>
      <point x="713" y="1101"/>
      <point x="543" y="1101" type="curve" smooth="yes"/>
      <point x="382" y="1101"/>
      <point x="238" y="1057"/>
      <point x="95" y="975" type="curve"/>
      <point x="163" y="811" type="line"/>
      <point x="286" y="876"/>
      <point x="415" y="907"/>
      <point x="513" y="907" type="curve" smooth="yes"/>
      <point x="643" y="907"/>
      <point x="722" y="853"/>
      <point x="722" y="707" type="curve" smooth="yes"/>
      <point x="722" y="621" type="line"/>
      <point x="672" y="627"/>
      <point x="541" y="628"/>
      <point x="512" y="628" type="curve" smooth="yes"/>
      <point x="250" y="628"/>
      <point x="65" y="525"/>
      <point x="65" y="300" type="curve" smooth="yes"/>
      <point x="65" y="89"/>
      <point x="199" y="-13"/>
      <point x="397" y="-18" type="curve"/>
      <point x="582" y="-18"/>
      <point x="744" y="37"/>
      <point x="831" y="171" type="curve"/>
      <point x="906" y="56"/>
      <point x="1022" y="-20"/>
    </contour>
    <contour>
      <point x="479" y="144" type="curve" smooth="yes"/>
      <point x="402" y="144"/>
      <point x="314" y="186"/>
      <point x="314" y="302" type="curve" smooth="yes"/>
      <point x="314" y="425"/>
      <point x="393" y="488"/>
      <point x="564" y="488" type="curve" smooth="yes"/>
      <point x="589" y="488"/>
      <point x="673" y="485"/>
      <point x="723" y="480" type="curve" smooth="yes"/>
      <point x="723" y="463"/>
      <point x="734" y="339"/>
      <point x="744" y="317" type="curve" smooth="yes"/>
      <point x="728" y="213"/>
      <point x="618" y="144"/>
    </contour>
    <contour>
      <point x="965" y="611" type="curve"/>
      <point x="978" y="831"/>
      <point x="1095" y="924"/>
      <point x="1236" y="924" type="curve" smooth="yes"/>
      <point x="1388" y="924"/>
      <point x="1433" y="844"/>
      <point x="1433" y="751" type="curve" smooth="yes"/>
      <point x="1433" y="657"/>
      <point x="1373" y="592"/>
    </contour>
  </outline>
</glyph>
<glyph name="eth" format="1">
  <advance width="1223"/>
  <unicode hex="00F0"/>
  <outline>
    <contour>
      <point x="610" y="-22" type="curve" smooth="yes"/>
      <point x="950" y="-22"/>
      <point x="1119" y="190"/>
      <point x="1123" y="493" type="curve" smooth="yes"/>
      <point x="1125" y="649"/>
      <point x="1084" y="789"/>
      <point x="1020" y="899" type="curve" smooth="yes"/>
      <point x="946" y="1025"/>
      <point x="841" y="1145"/>
      <point x="684" y="1309" type="curve"/>
      <point x="926" y="1401" type="line"/>
      <point x="845" y="1555" type="line"/>
      <point x="555" y="1441" type="line"/>
      <point x="421" y="1571" type="line"/>
      <point x="156" y="1571" type="line"/>
      <point x="371" y="1366" type="line"/>
      <point x="175" y="1288" type="line"/>
      <point x="247" y="1134" type="line"/>
      <point x="494" y="1230" type="line"/>
      <point x="624" y="1104"/>
      <point x="724" y="984"/>
      <point x="778" y="893" type="curve"/>
      <point x="727" y="926"/>
      <point x="650" y="961"/>
      <point x="567" y="961" type="curve" smooth="yes"/>
      <point x="280" y="961"/>
      <point x="92" y="769"/>
      <point x="92" y="481" type="curve" smooth="yes"/>
      <point x="92" y="197"/>
      <point x="291" y="-22"/>
    </contour>
    <contour>
      <point x="615" y="172" type="curve" smooth="yes"/>
      <point x="429" y="172"/>
      <point x="332" y="313"/>
      <point x="332" y="485" type="curve" smooth="yes"/>
      <point x="332" y="663"/>
      <point x="432" y="790"/>
      <point x="609" y="790" type="curve" smooth="yes"/>
      <point x="792" y="790"/>
      <point x="894" y="652"/>
      <point x="894" y="486" type="curve" smooth="yes"/>
      <point x="894" y="295"/>
      <point x="796" y="172"/>
    </contour>
  </outline>
</glyph>
<glyph name="divide" format="1">
  <advance width="1226"/>
  <unicode hex="00F7"/>
  <outline>
    <contour>
      <point x="482" y="25" type="line"/>
      <point x="729" y="25" type="line"/>
      <point x="729" y="281" type="line"/>
      <point x="482" y="281" type="line"/>
    </contour>
    <contour>
      <point x="92" y="497" type="line"/>
      <point x="1118" y="497" type="line"/>
      <point x="1118" y="678" type="line"/>
      <point x="92" y="678" type="line"/>
    </contour>
    <contour>
      <point x="482" y="888" type="line"/>
      <point x="735" y="888" type="line"/>
      <point x="735" y="1135" type="line"/>
      <point x="482" y="1135" type="line"/>
    </contour>
  </outline>
</glyph>
<glyph name="thorn" format="1">
  <advance width="1286"/>
  <unicode hex="00FE"/>
  <outline>
    <contour>
      <point x="187" y="-443" type="line"/>
      <point x="456" y="-443" type="line"/>
      <point x="456" y="96" type="line"/>
      <point x="515" y="30"/>
      <point x="607" y="-20"/>
      <point x="735" y="-20" type="curve" smooth="yes"/>
      <point x="1031" y="-20"/>
      <point x="1187" y="211"/>
      <point x="1187" y="546" type="curve" smooth="yes"/>
      <point x="1187" y="866"/>
      <point x="1051" y="1104"/>
      <point x="760" y="1104" type="curve" smooth="yes"/>
      <point x="631" y="1104"/>
      <point x="516" y="1055"/>
      <point x="451" y="916" type="curve"/>
      <point x="460" y="1130" type="line"/>
      <point x="460" y="1560" type="line"/>
      <point x="187" y="1540" type="line"/>
    </contour>
    <contour>
      <point x="687" y="163" type="curve" smooth="yes"/>
      <point x="576" y="163"/>
      <point x="505" y="205"/>
      <point x="456" y="271" type="curve"/>
      <point x="456" y="562" type="line" smooth="yes"/>
      <point x="456" y="810"/>
      <point x="549" y="920"/>
      <point x="703" y="920" type="curve" smooth="yes"/>
      <point x="846" y="920"/>
      <point x="910" y="799"/>
      <point x="910" y="546" type="curve" smooth="yes"/>
      <point x="910" y="289"/>
      <point x="828" y="163"/>
    </contour>
  </outline>
</glyph>
<glyph name="Hbar" format="1">
  <advance width="1540"/>
  <unicode hex="0126"/>
  <outline>
    <contour>
      <point x="63" y="1121" type="line"/>
      <point x="1470" y="1121" type="line"/>
      <point x="1470" y="1285" type="line"/>
      <point x="63" y="1285" type="line"/>
    </contour>
    <component base="H"/>
  </outline>
</glyph>
<glyph name="kgreenlandic" format="1">
  <advance width="1141"/>
  <unicode hex="0138"/>
  <outline>
    <contour>
      <point x="129" y="0" type="line"/>
      <point x="356" y="0" type="line"/>
      <point x="356" y="377" type="line"/>
      <point x="455" y="468" type="line"/>
      <point x="819" y="0" type="line"/>
      <point x="1077" y="0" type="line"/>
      <point x="1077" y="14" type="line"/>
      <point x="624" y="588" type="line"/>
      <point x="1049" y="1061" type="line"/>
      <point x="1049" y="1082" type="line"/>
      <point x="786" y="1082" type="line"/>
      <point x="350" y="586" type="line"/>
      <point x="356" y="805" type="line"/>
      <point x="356" y="1082" type="line"/>
      <point x="129" y="1082" type="line"/>
    </contour>
  </outline>
</glyph>
<glyph name="florin" format="1">
  <advance width="1122"/>
  <unicode hex="0192"/>
  <outline>
    <contour>
      <point x="115" y="-345" type="curve" smooth="yes"/>
      <point x="311" y="-345"/>
      <point x="451" y="-196"/>
      <point x="513" y="117" type="curve" smooth="yes"/>
      <point x="679" y="971" type="line"/>
      <point x="956" y="971" type="line"/>
      <point x="972" y="1049" type="line"/>
      <point x="696" y="1049" type="line"/>
      <point x="740" y="1295" type="line" smooth="yes"/>
      <point x="765" y="1436"/>
      <point x="836" y="1504"/>
      <point x="919" y="1504" type="curve" smooth="yes"/>
      <point x="1015" y="1504"/>
      <point x="1042" y="1427"/>
      <point x="1052" y="1305" type="curve"/>
      <point x="1197" y="1305" type="line"/>
      <point x="1192" y="1530"/>
      <point x="1090" y="1645"/>
      <point x="898" y="1645" type="curve" smooth="yes"/>
      <point x="670" y="1645"/>
      <point x="537" y="1503"/>
      <point x="496" y="1260" type="curve" smooth="yes"/>
      <point x="460" y="1049" type="line"/>
      <point x="263" y="1049" type="line"/>
      <point x="247" y="971" type="line"/>
      <point x="448" y="971" type="line"/>
      <point x="282" y="111" type="line"/>
      <point x="243" y="-105"/>
      <point x="237" y="-219"/>
      <point x="84" y="-219" type="curve" smooth="yes"/>
      <point x="49" y="-219"/>
      <point x="6" y="-213"/>
      <point x="-49" y="-202" type="curve"/>
      <point x="-75" y="-306" type="line"/>
      <point x="-5" y="-332"/>
      <point x="59" y="-345"/>
    </contour>
  </outline>
</glyph>
<glyph name="uni02C9" format="1">
  <advance width="600"/>
  <unicode hex="02C9"/>
  <outline>
    <contour>
      <point x="299" y="1074" type="move" name="_top"/>
    </contour>
    <contour>
      <point x="-39" y="1334" type="line"/>
      <point x="627" y="1334" type="line"/>
      <point x="627" y="1491" type="line"/>
      <point x="-39" y="1491" type="line"/>
    </contour>
  </outline>
</glyph>
<glyph name="breve" format="1">
  <advance width="907"/>
  <unicode hex="02D8"/>
  <outline>
    <contour>
      <point x="437" y="1074" type="move" name="_top"/>
    </contour>
    <contour>
      <point x="435" y="1305" type="curve" smooth="yes"/>
      <point x="596" y="1305"/>
      <point x="708" y="1397"/>
      <point x="708" y="1565" type="curve"/>
      <point x="555" y="1565" type="line"/>
      <point x="555" y="1491"/>
      <point x="500" y="1455"/>
      <point x="435" y="1455" type="curve" smooth="yes"/>
      <point x="371" y="1455"/>
      <point x="318" y="1491"/>
      <point x="318" y="1565" type="curve"/>
      <point x="163" y="1565" type="line"/>
      <point x="163" y="1397"/>
      <point x="274" y="1305"/>
    </contour>
  </outline>
</glyph>
<glyph name="dotaccent" format="1">
  <advance width="549"/>
  <unicode hex="02D9"/>
  <outline>
    <contour>
      <point x="275" y="1082" type="move" name="_top"/>
    </contour>
    <contour>
      <point x="276" y="1284" type="curve" smooth="yes"/>
      <point x="381" y="1284"/>
      <point x="444" y="1347"/>
      <point x="444" y="1446" type="curve" smooth="yes"/>
      <point x="444" y="1540"/>
      <point x="381" y="1602"/>
      <point x="276" y="1602" type="curve" smooth="yes"/>
      <point x="171" y="1602"/>
      <point x="108" y="1540"/>
      <point x="108" y="1446" type="curve" smooth="yes"/>
      <point x="108" y="1347"/>
      <point x="171" y="1284"/>
    </contour>
  </outline>
</glyph>
<glyph name="tilde" format="1">
  <advance width="980"/>
  <unicode hex="02DC"/>
  <outline>
    <contour>
      <point x="498" y="1072" type="move" name="_top"/>
    </contour>
    <contour>
      <point x="160" y="1274" type="curve"/>
      <point x="278" y="1274" type="line"/>
      <point x="291" y="1346"/>
      <point x="315" y="1373"/>
      <point x="350" y="1373" type="curve" smooth="yes"/>
      <point x="420" y="1373"/>
      <point x="528" y="1274"/>
      <point x="637" y="1274" type="curve" smooth="yes"/>
      <point x="762" y="1274"/>
      <point x="814" y="1391"/>
      <point x="814" y="1516" type="curve"/>
      <point x="694" y="1516" type="line"/>
      <point x="682" y="1453"/>
      <point x="662" y="1432"/>
      <point x="633" y="1432" type="curve" smooth="yes"/>
      <point x="574" y="1432"/>
      <point x="480" y="1517"/>
      <point x="350" y="1517" type="curve" smooth="yes"/>
      <point x="214" y="1517"/>
      <point x="160" y="1403"/>
    </contour>
  </outline>
</glyph>
<glyph name="uni0307" format="1">
  <advance width="540"/>
  <unicode hex="0307"/>
  <outline>
    <contour>
      <point x="274" y="1302" type="curve" smooth="yes"/>
      <point x="374" y="1302"/>
      <point x="434" y="1359"/>
      <point x="434" y="1454" type="curve" smooth="yes"/>
      <point x="434" y="1545"/>
      <point x="374" y="1601"/>
      <point x="274" y="1601" type="curve" smooth="yes"/>
      <point x="174" y="1601"/>
      <point x="113" y="1545"/>
      <point x="113" y="1454" type="curve" smooth="yes"/>
      <point x="113" y="1359"/>
      <point x="174" y="1302"/>
    </contour>
  </outline>
</glyph>
<glyph name="dblgravecomb" format="1">
  <advance width="1003"/>
  <unicode hex="030F"/>
  <outline>
    <contour>
      <point x="534" y="1074" type="move" name="_top"/>
    </contour>
    <contour>
      <point x="303" y="1253" type="line"/>
      <point x="439" y="1253" type="line"/>
      <point x="292" y="1632" type="line"/>
      <point x="50" y="1632" type="line"/>
    </contour>
    <contour>
      <point x="626" y="1253" type="line"/>
      <point x="770" y="1253" type="line"/>
      <point x="625" y="1632" type="line"/>
      <point x="403" y="1632" type="line"/>
    </contour>
  </outline>
</glyph>
<glyph name="commaturnedabovecomb" format="1">
  <advance width="600"/>
  <unicode hex="0312"/>
  <outline>
    <contour>
      <point x="292" y="1074" type="move" name="_top"/>
    </contour>
    <contour>
      <point x="165" y="1278" type="line"/>
      <point x="414" y="1278" type="line"/>
      <point x="414" y="1314"/>
      <point x="463" y="1787"/>
      <point x="463" y="1787" type="curve"/>
      <point x="294" y="1787" type="line"/>
      <point x="294" y="1787"/>
      <point x="172" y="1331"/>
      <point x="172" y="1297" type="curve"/>
    </contour>
  </outline>
</glyph>
<glyph name="commaaccent" format="1">
  <advance width="617"/>
  <unicode hex="0326"/>
  <outline>
    <contour>
      <point x="338" y="0" type="move" name="_bot"/>
    </contour>
    <contour>
      <point x="158" y="-539" type="curve"/>
      <point x="332" y="-539" type="line"/>
      <point x="332" y="-539"/>
      <point x="434" y="-260"/>
      <point x="453" y="-141" type="curve" smooth="yes"/>
      <point x="453" y="-117" type="line"/>
      <point x="225" y="-117" type="line"/>
      <point x="218" y="-192"/>
      <point x="169" y="-474"/>
    </contour>
  </outline>
</glyph>
<glyph name="emdash" format="1">
  <advance width="2186"/>
  <unicode hex="2014"/>
  <outline>
    <contour>
      <point x="60" y="481" type="line"/>
      <point x="2126" y="481" type="line"/>
      <point x="2126" y="659" type="line"/>
      <point x="60" y="659" type="line"/>
    </contour>
  </outline>
</glyph>
<glyph name="quoteright" format="1">
  <advance width="528"/>
  <unicode hex="2019"/>
  <outline>
    <contour>
      <point x="135" y="1026" type="line"/>
      <point x="308" y="1026" type="line"/>
      <point x="425" y="1530" type="line"/>
      <point x="176" y="1530" type="line"/>
    </contour>
  </outline>
</glyph>
<glyph name="quotesinglbase" format="1">
  <advance width="493"/>
  <unicode hex="201A"/>
  <outline>
    <contour>
      <point x="101" y="-348" type="line"/>
      <point x="270" y="-348" type="line"/>
      <point x="388" y="151" type="line"/>
      <point x="146" y="151" type="line"/>
    </contour>
  </outline>
</glyph>
<glyph name="dagger" format="1">
  <advance width="1112"/>
  <unicode hex="2020"/>
  <outline>
    <contour>
      <point x="437" y="-10" type="line"/>
      <point x="667" y="-10" type="line"/>
      <point x="667" y="935" type="line"/>
      <point x="978" y="935" type="line"/>
      <point x="978" y="1096" type="line"/>
      <point x="670" y="1096" type="line"/>
      <point x="670" y="1475" type="line"/>
      <point x="437" y="1475" type="line"/>
      <point x="437" y="1096" type="line"/>
      <point x="139" y="1096" type="line"/>
      <point x="139" y="935" type="line"/>
      <point x="437" y="935" type="line"/>
    </contour>
  </outline>
</glyph>
<glyph name="guilsinglleft" format="1">
  <advance width="738"/>
  <unicode hex="2039"/>
  <outline>
    <contour>
      <point x="390" y="130" type="line"/>
      <point x="636" y="130" type="line"/>
      <point x="371" y="558" type="line"/>
      <point x="643" y="993" type="line"/>
      <point x="396" y="993" type="line"/>
      <point x="113" y="557" type="line"/>
    </contour>
  </outline>
</glyph>
<glyph name="uni2074" format="1">
  <advance width="694"/>
  <unicode hex="2074"/>
  <outline>
    <contour>
      <point x="377" y="601" type="line"/>
      <point x="527" y="601" type="line"/>
      <point x="527" y="793" type="line"/>
      <point x="631" y="793" type="line"/>
      <point x="643" y="918" type="line"/>
      <point x="527" y="918" type="line"/>
      <point x="527" y="1473" type="line"/>
      <point x="367" y="1473" type="line"/>
      <point x="15" y="925" type="line"/>
      <point x="15" y="793" type="line"/>
      <point x="377" y="793" type="line"/>
    </contour>
    <contour>
      <point x="179" y="918" type="line"/>
      <point x="377" y="1274" type="line"/>
      <point x="377" y="918" type="line"/>
    </contour>
  </outline>
</glyph>
<glyph name="Euro" format="1">
  <advance width="1391"/>
  <unicode hex="20AC"/>
  <outline>
    <contour>
      <point x="-72" y="527" type="line"/>
      <point x="806" y="527" type="line"/>
      <point x="809" y="662" type="line"/>
      <point x="241" y="662" type="line"/>
      <point x="241" y="809" type="line"/>
      <point x="809" y="809" type="line"/>
      <point x="812" y="943" type="line"/>
      <point x="-67" y="943" type="line"/>
      <point x="-69" y="809" type="line"/>
      <point x="104" y="809" type="line"/>
      <point x="104" y="662" type="line"/>
      <point x="-70" y="662" type="line"/>
    </contour>
    <component base="C" xOffset="-56"/>
  </outline>
</glyph>
<glyph name="uni2206" format="1">
  <advance width="1309"/>
  <unicode hex="2206"/>
  <outline>
    <contour>
      <point x="69" y="0" type="line"/>
      <point x="1244" y="0" type="line"/>
      <point x="1244" y="111" type="line"/>
      <point x="752" y="1567" type="line"/>
      <point x="562" y="1567" type="line"/>
      <point x="69" y="111" type="line"/>
    </contour>
    <contour>
      <point x="270" y="200" type="line"/>
      <point x="599" y="1158" type="line"/>
      <point x="633" y="1279" type="line"/>
      <point x="667" y="1158" type="line"/>
      <point x="999" y="200" type="line"/>
    </contour>
  </outline>
</glyph>
<glyph name="integral" format="1">
  <advance width="851"/>
  <unicode hex="222B"/>
  <outline>
    <contour>
      <point x="256" y="-463" type="curve" smooth="yes"/>
      <point x="465" y="-463"/>
      <point x="570" y="-302"/>
      <point x="570" y="-34" type="curve" smooth="yes"/>
      <point x="570" y="1181" type="line" smooth="yes"/>
      <point x="570" y="1341"/>
      <point x="598" y="1420"/>
      <point x="711" y="1420" type="curve" smooth="yes"/>
      <point x="735" y="1420"/>
      <point x="763" y="1416"/>
      <point x="795" y="1409" type="curve"/>
      <point x="795" y="1564" type="line"/>
      <point x="734" y="1578"/>
      <point x="684" y="1586"/>
      <point x="639" y="1586" type="curve" smooth="yes"/>
      <point x="439" y="1586"/>
      <point x="353" y="1435"/>
      <point x="353" y="1172" type="curve" smooth="yes"/>
      <point x="353" y="-42" type="line" smooth="yes"/>
      <point x="353" y="-201"/>
      <point x="313" y="-269"/>
      <point x="216" y="-269" type="curve" smooth="yes"/>
      <point x="179" y="-269"/>
      <point x="146" y="-263"/>
      <point x="106" y="-255" type="curve"/>
      <point x="106" y="-442" type="line"/>
      <point x="163" y="-457"/>
      <point x="213" y="-463"/>
    </contour>
  </outline>
</glyph>
<glyph name="notequal" format="1">
  <advance width="1141"/>
  <unicode hex="2260"/>
  <outline>
    <contour>
      <point x="208" y="68" type="line"/>
      <point x="354" y="44" type="line"/>
      <point x="491" y="332" type="line"/>
      <point x="1044" y="332" type="line"/>
      <point x="1033" y="492" type="line"/>
      <point x="564" y="492" type="line"/>
      <point x="693" y="747" type="line"/>
      <point x="1044" y="747" type="line"/>
      <point x="1032" y="916" type="line"/>
      <point x="765" y="916" type="line"/>
      <point x="879" y="1168" type="line"/>
      <point x="732" y="1189" type="line"/>
      <point x="597" y="916" type="line"/>
      <point x="60" y="916" type="line"/>
      <point x="72" y="748" type="line"/>
      <point x="526" y="748" type="line"/>
      <point x="400" y="493" type="line"/>
      <point x="63" y="493" type="line"/>
      <point x="72" y="332" type="line"/>
      <point x="325" y="332" type="line"/>
    </contour>
  </outline>
</glyph>
<glyph name="greaterequal" format="1">
  <advance width="1192"/>
  <unicode hex="2265"/>
  <outline>
    <contour>
      <point x="149" y="224" type="line"/>
      <point x="1056" y="702" type="line"/>
      <point x="1056" y="810" type="line"/>
      <point x="151" y="1306" type="line"/>
      <point x="151" y="1119" type="line"/>
      <point x="847" y="756" type="line"/>
      <point x="149" y="414" type="line"/>
    </contour>
    <contour>
      <point x="133" y="5" type="line"/>
      <point x="1066" y="5" type="line"/>
      <point x="1066" y="160" type="line"/>
      <point x="133" y="160" type="line"/>
    </contour>
  </outline>
</glyph>
<glyph name="lozenge" format="1">
  <advance width="1195"/>
  <unicode hex="25CA"/>
  <outline>
    <contour>
      <point x="532" y="-46" type="line"/>
      <point x="653" y="-46" type="line"/>
      <point x="1089" y="750" type="line"/>
      <point x="662" y="1549" type="line"/>
      <point x="539" y="1549" type="line"/>
      <point x="107" y="749" type="line"/>
    </contour>
    <contour>
      <point x="591" y="147" type="curve"/>
      <point x="476" y="364"/>
      <point x="389" y="533"/>
      <point x="277" y="751" type="curve"/>
      <point x="393" y="969"/>
      <point x="485" y="1136"/>
      <point x="602" y="1353" type="curve"/>
      <point x="714" y="1134"/>
      <point x="806" y="967"/>
      <point x="919" y="751" type="curve"/>
      <point x="803" y="532"/>
      <point x="708" y="366"/>
    </contour>
  </outline>
</glyph>
<glyph name="caron.alt" format="1">
  <advance width="671"/>
  <outline>
    <contour>
      <point x="114" y="1082" type="move" name="_caron.alt"/>
    </contour>
    <contour>
      <point x="399" y="1138" type="line"/>
      <point x="566" y="1138" type="line"/>
      <point x="639" y="1550" type="line"/>
      <point x="419" y="1550" type="line"/>
    </contour>
  </outline>
</glyph>
<glyph name="dotlessj" format="1">
  <advance width="653"/>
  <outline>
    <contour>
      <point x="44" y="-484" type="line"/>
      <point x="120" y="-459" type="line"/>
      <point x="366" y="-380"/>
      <point x="491" y="-307"/>
      <point x="491" y="-22" type="curve" smooth="yes"/>
      <point x="491" y="1082" type="line"/>
      <point x="217" y="1082" type="line"/>
      <point x="217" y="10" type="line" smooth="yes"/>
      <point x="217" y="-157"/>
      <point x="204" y="-197"/>
      <point x="44" y="-253" type="curve" smooth="yes"/>
      <point x="-36" y="-282" type="line"/>
    </contour>
  </outline>
</glyph>
